<svg width="580" height="498" viewBox="0 0 580 498" fill="none" xmlns="http://www.w3.org/2000/svg">
<g opacity="0.8" filter="url(#filter0_f)">
<path d="M287.738 487.915C417.667 487.915 522.995 382.744 522.995 253.01C522.995 123.275 417.667 18.1045 287.738 18.1045C157.809 18.1045 52.4805 123.275 52.4805 253.01C52.4805 382.744 157.809 487.915 287.738 487.915Z" fill="url(#paint0_linear)"/>
</g>
<path d="M484.072 151.529H494.589C497.643 151.529 500.141 156.845 500.141 163.348V311.896C500.141 318.394 497.658 323.71 494.589 323.71H484.096C481.043 323.71 478.545 318.394 478.545 311.896V163.348C478.52 156.85 481.018 151.529 484.072 151.529Z" fill="#70AEFB"/>
<path d="M245.035 130.663H255.528C258.582 130.663 261.079 135.983 261.079 142.482V332.762C261.079 339.26 258.597 344.576 255.528 344.576H245.035C241.981 344.576 239.483 339.26 239.483 332.762V142.482C239.483 135.983 241.981 130.663 245.035 130.663Z" fill="#70AEFB"/>
<path d="M85.6792 130.663H96.1718C99.2258 130.663 101.724 135.983 101.724 142.482V332.762C101.724 339.26 99.2407 344.576 96.1718 344.576H85.6792C82.6253 344.576 80.1275 339.26 80.1275 332.762V142.482C80.1275 135.983 82.6253 130.663 85.6792 130.663Z" fill="#70AEFB"/>
<path d="M205.2 78.4968H215.687C218.741 78.4968 221.244 83.8177 221.244 90.3161V384.928C221.244 391.431 218.761 396.747 215.687 396.747H205.2C202.141 396.747 199.643 391.431 199.643 384.928V90.3161C199.623 83.8078 202.141 78.4968 205.2 78.4968Z" fill="#70AEFB"/>
<path d="M165.36 0.223633H175.847C178.901 0.223633 181.404 5.54453 181.404 12.0429V447.551C181.404 454.049 178.921 459.365 175.847 459.365H165.36C162.306 459.365 159.803 454.049 159.803 447.551V12.0429C159.803 5.54453 162.306 0.223633 165.36 0.223633Z" fill="#70AEFB"/>
<path d="M125.519 78.4968H136.007C139.066 78.4968 141.564 83.8177 141.564 90.3161V379.721C141.564 386.224 139.081 391.54 136.007 391.54H125.519C122.465 391.54 119.963 386.224 119.963 379.721V90.3061C119.963 83.8078 122.465 78.4968 125.519 78.4968Z" fill="#70AEFB"/>
<path d="M324.716 146.317H335.188C338.242 146.317 340.74 151.633 340.74 158.131V306.679C340.74 313.178 338.257 318.493 335.188 318.493H324.716C321.662 318.493 319.164 313.178 319.164 306.679V158.131C319.164 151.633 321.662 146.317 324.716 146.317Z" fill="#70AEFB"/>
<path d="M444.236 104.575H454.724C457.778 104.575 460.281 109.896 460.281 116.394V353.633C460.281 360.137 457.798 365.452 454.724 365.452H444.236C441.177 365.452 438.68 360.137 438.68 353.633V116.394C438.68 109.896 441.177 104.575 444.236 104.575Z" fill="#70AEFB"/>
<path d="M364.556 104.575H375.043C378.102 104.575 380.6 109.896 380.6 116.394V353.633C380.6 360.137 378.117 365.452 375.043 365.452H364.556C361.502 365.452 358.999 360.137 358.999 353.633V116.394C359.024 109.896 361.507 104.575 364.556 104.575Z" fill="#70AEFB"/>
<path d="M404.396 62.8374H414.884C417.938 62.8374 420.44 68.1533 420.44 74.6517V411.025C420.44 417.529 417.957 422.845 414.884 422.845H404.396C401.342 422.845 398.839 417.529 398.839 411.025V74.6517C398.839 68.1533 401.342 62.8374 404.396 62.8374Z" fill="#70AEFB"/>
<path d="M523.912 193.261H534.404C537.458 193.261 539.956 198.577 539.956 205.076V270.158C539.956 276.657 537.473 281.978 534.404 281.978H523.912C520.858 281.978 518.36 276.657 518.36 270.158V205.076C518.36 198.592 520.858 193.261 523.912 193.261Z" fill="#70AEFB"/>
<path d="M563.752 213.01H574.245C577.299 213.01 579.796 218.33 579.796 224.829V254.369C579.796 260.873 577.314 266.189 574.245 266.189H563.752C560.698 266.189 558.2 260.873 558.2 254.369V224.809C558.2 218.33 560.698 213.01 563.752 213.01Z" fill="#70AEFB"/>
<path d="M284.875 193.261H295.368C298.442 193.261 300.925 198.592 300.925 205.09V270.173C300.925 276.672 298.442 281.992 295.373 281.992H284.875C281.821 281.992 279.324 276.672 279.324 270.173V205.09C279.324 198.592 281.821 193.261 284.875 193.261Z" fill="#70AEFB"/>
<path d="M45.839 170.452H56.3317C59.3856 170.452 61.8834 175.773 61.8834 182.272V289.857C61.8834 296.355 59.4005 301.671 56.3317 301.671H45.839C42.7851 301.671 40.2873 296.355 40.2873 289.857V182.272C40.2873 175.773 42.7851 170.452 45.839 170.452Z" fill="#70AEFB"/>
<path d="M5.99861 188.189H16.4913C19.5452 188.189 22.043 193.505 22.043 200.003V265.086C22.043 271.584 19.5601 276.905 16.4913 276.905H5.99861C2.94467 276.905 0.446896 271.584 0.446896 265.086V200.003C0.446896 193.505 2.94467 188.189 5.99861 188.189Z" fill="#70AEFB"/>
<path d="M199.663 227.964H144.275C139.317 227.964 135.297 231.985 135.297 236.946V332.494C135.297 337.455 139.317 341.476 144.275 341.476H199.663C204.621 341.476 208.641 337.455 208.641 332.494V236.946C208.641 231.985 204.621 227.964 199.663 227.964Z" fill="#474C4A"/>
<path d="M195.08 232.549H150.005C145.047 232.549 141.027 236.571 141.027 241.532V309.561C141.027 314.522 145.047 318.543 150.005 318.543H195.08C200.038 318.543 204.058 314.522 204.058 309.561V241.532C204.058 236.571 200.038 232.549 195.08 232.549Z" fill="#777777"/>
<path d="M172.545 335.743C176.659 335.743 179.994 332.406 179.994 328.291C179.994 324.175 176.659 320.838 172.545 320.838C168.431 320.838 165.096 324.175 165.096 328.291C165.096 332.406 168.431 335.743 172.545 335.743Z" fill="#777777"/>
<path d="M148.476 230.284H147.329V319.676H148.476V230.284Z" fill="#474C4A"/>
<path d="M159.282 230.284H158.134V319.676H159.282V230.284Z" fill="#474C4A"/>
<path d="M170.087 230.284H168.94V319.676H170.087V230.284Z" fill="#474C4A"/>
<path d="M179.691 231.446H178.544V320.838H179.691V231.446Z" fill="#474C4A"/>
<path d="M189.3 229.126H188.152V318.518H189.3V229.126Z" fill="#474C4A"/>
<path d="M198.903 227.964H197.756V317.356H198.903V227.964Z" fill="#474C4A"/>
<path d="M428.867 226.816H373.479C368.521 226.816 364.501 230.837 364.501 235.798V331.346C364.501 336.307 368.521 340.328 373.479 340.328H428.867C433.826 340.328 437.845 336.307 437.845 331.346V235.798C437.845 230.837 433.826 226.816 428.867 226.816Z" fill="#474C4A"/>
<path d="M424.284 231.402H379.21C374.251 231.402 370.232 235.423 370.232 240.384V308.413C370.232 313.374 374.251 317.395 379.21 317.395H424.284C429.242 317.395 433.262 313.374 433.262 308.413V240.384C433.262 235.423 429.242 231.402 424.284 231.402Z" fill="#777777"/>
<path d="M401.749 334.595C405.863 334.595 409.198 331.259 409.198 327.143C409.198 323.027 405.863 319.691 401.749 319.691C397.636 319.691 394.301 323.027 394.301 327.143C394.301 331.259 397.636 334.595 401.749 334.595Z" fill="#777777"/>
<path d="M377.685 229.141H376.538V318.533H377.685V229.141Z" fill="#474C4A"/>
<path d="M388.491 229.141H387.344V318.533H388.491V229.141Z" fill="#474C4A"/>
<path d="M399.296 229.141H398.149V318.533H399.296V229.141Z" fill="#474C4A"/>
<path d="M408.9 230.299H407.753V319.691H408.9V230.299Z" fill="#474C4A"/>
<path d="M418.504 227.979H417.357V317.371H418.504V227.979Z" fill="#474C4A"/>
<path d="M428.108 226.816H426.96V316.208H428.108V226.816Z" fill="#474C4A"/>
<path d="M299.023 309.372H283.684C280.554 309.372 278.018 311.91 278.018 315.04V344.621C278.018 347.752 280.554 350.29 283.684 350.29H299.023C302.152 350.29 304.689 347.752 304.689 344.621V315.04C304.689 311.91 302.152 309.372 299.023 309.372Z" fill="#0C0C0C"/>
<path d="M299.023 309.118H283.684C282.115 309.121 280.611 309.746 279.501 310.856C278.392 311.966 277.767 313.471 277.764 315.04V344.621C277.767 346.191 278.392 347.695 279.501 348.805C280.611 349.915 282.115 350.54 283.684 350.543H299.023C300.593 350.542 302.098 349.917 303.209 348.807C304.319 347.697 304.944 346.191 304.947 344.621V315.04C304.944 313.47 304.319 311.964 303.209 310.854C302.098 309.744 300.593 309.12 299.023 309.118ZM304.436 344.621C304.434 346.057 303.863 347.433 302.849 348.449C301.834 349.464 300.458 350.035 299.023 350.036H283.684C282.249 350.035 280.873 349.464 279.858 348.449C278.843 347.433 278.272 346.057 278.271 344.621V315.04C278.272 313.605 278.843 312.228 279.858 311.213C280.873 310.197 282.249 309.626 283.684 309.625H299.023C300.458 309.626 301.834 310.197 302.849 311.213C303.863 312.228 304.434 313.605 304.436 315.04V344.621Z" fill="black"/>
<path d="M299.241 309.66H283.937C280.808 309.66 278.271 312.198 278.271 315.329V327.237C278.271 330.368 280.808 332.906 283.937 332.906H299.241C302.371 332.906 304.907 330.368 304.907 327.237V315.329C304.907 312.198 302.371 309.66 299.241 309.66Z" fill="black"/>
<path d="M299.241 309.407H283.937C282.368 309.409 280.864 310.034 279.754 311.144C278.645 312.254 278.02 313.759 278.018 315.329V327.252C278.02 328.822 278.645 330.327 279.754 331.437C280.864 332.547 282.368 333.172 283.937 333.174H299.241C300.811 333.173 302.316 332.549 303.427 331.439C304.538 330.329 305.163 328.823 305.165 327.252V315.329C305.163 313.758 304.538 312.253 303.427 311.142C302.316 310.032 300.811 309.408 299.241 309.407ZM304.654 327.242C304.653 328.678 304.082 330.054 303.067 331.068C302.052 332.083 300.676 332.653 299.241 332.653H283.937C282.502 332.653 281.126 332.083 280.111 331.068C279.096 330.054 278.525 328.678 278.524 327.242V315.319C278.525 313.883 279.096 312.507 280.111 311.493C281.126 310.478 282.502 309.908 283.937 309.908H299.241C300.676 309.908 302.052 310.478 303.067 311.493C304.082 312.507 304.653 313.883 304.654 315.319V327.242Z" fill="black"/>
<path d="M389.196 165.236H186.395C182.983 165.236 180.217 168.003 180.217 171.416V310.152C180.217 313.565 182.983 316.332 186.395 316.332H389.196C392.608 316.332 395.373 313.565 395.373 310.152V171.416C395.373 168.003 392.608 165.236 389.196 165.236Z" fill="#0C0C0C"/>
<path d="M389.201 164.982H186.395C184.687 164.982 183.048 165.659 181.839 166.865C180.629 168.071 179.946 169.708 179.939 171.416V310.157C179.939 311.87 180.619 313.512 181.83 314.724C183.04 315.935 184.682 316.615 186.395 316.615H389.201C390.913 316.615 392.555 315.935 393.766 314.724C394.976 313.512 395.656 311.87 395.656 310.157V171.401C395.646 169.695 394.961 168.063 393.752 166.86C392.542 165.657 390.906 164.982 389.201 164.982ZM395.12 310.157C395.117 311.727 394.493 313.231 393.383 314.341C392.274 315.451 390.77 316.076 389.201 316.079H186.395C184.825 316.076 183.321 315.451 182.212 314.341C181.102 313.231 180.478 311.727 180.475 310.157V171.401C180.478 169.831 181.102 168.327 182.212 167.217C183.321 166.107 184.825 165.482 186.395 165.479H389.201C390.77 165.482 392.274 166.107 393.383 167.217C394.493 168.327 395.117 169.831 395.12 171.401V310.157Z" fill="black"/>
<path d="M378.852 173.518H196.738C193.327 173.518 190.561 176.285 190.561 179.698V299.803C190.561 303.217 193.327 305.984 196.738 305.984H378.852C382.264 305.984 385.03 303.217 385.03 299.803V179.698C385.03 176.285 382.264 173.518 378.852 173.518Z" fill="#474C4A"/>
<path d="M371.568 177.726H204.028C201.489 177.726 199.053 178.734 197.256 180.529C195.459 182.324 194.448 184.759 194.444 187.299V292.669C194.444 295.212 195.454 297.651 197.251 299.449C199.048 301.247 201.486 302.258 204.028 302.258H371.568C374.109 302.258 376.547 301.247 378.344 299.449C380.142 297.651 381.151 295.212 381.151 292.669V187.299C381.147 184.759 380.136 182.324 378.339 180.529C376.542 178.734 374.107 177.726 371.568 177.726Z" fill="#F5F9FF"/>
<path d="M421.593 372.795C421.553 372.726 421.459 372.721 421.384 372.716C420.677 372.707 419.971 372.66 419.269 372.577C417.779 372.398 416.364 372.035 414.919 371.752C413.474 371.469 412.143 371.205 410.787 370.813C409.431 370.437 408.129 369.887 406.914 369.178L399.624 364.802L383.972 355.392L363.021 342.803C362.897 342.728 362.768 342.658 362.649 342.574C362.041 342.24 361.357 342.068 360.663 342.077H224.179C223.485 342.066 222.8 342.238 222.193 342.574L220.743 343.448L212.301 348.526L199.127 356.415L184.627 365.129L177.903 369.168L174.854 371.002C174.02 371.499 172.813 372.572 171.875 372.621C170.637 372.681 169.397 372.724 168.155 372.751C167.535 372.751 166.909 372.775 166.288 372.775C165.792 372.775 165.067 372.621 164.659 372.88C164.252 373.138 163.319 373.491 163.239 374.127C163.078 375.466 163.063 376.819 163.195 378.161C163.388 379.84 164.55 380.461 166.149 380.461H418.693C419.408 380.492 420.112 380.269 420.679 379.83C421.317 379.191 421.69 378.334 421.722 377.431C421.841 375.917 421.806 374.396 421.617 372.89C421.618 372.857 421.609 372.824 421.593 372.795Z" fill="#0C0C0C"/>
<path d="M421.821 372.666C421.775 372.598 421.711 372.543 421.637 372.507C421.563 372.472 421.481 372.456 421.399 372.462C420.7 372.453 420.002 372.407 419.308 372.323C418.315 372.199 417.282 371.985 416.299 371.777C415.862 371.682 415.415 371.588 414.973 371.503C413.439 371.2 412.162 370.942 410.871 370.569C409.534 370.2 408.251 369.659 407.053 368.96L363.155 342.579L363.026 342.504C362.942 342.455 362.862 342.41 362.778 342.35C362.126 341.987 361.389 341.801 360.643 341.814H224.179C223.434 341.801 222.699 341.987 222.049 342.35L174.74 370.783C174.507 370.922 174.243 371.096 173.99 371.28C173.285 371.777 172.5 372.328 171.855 372.358C170.584 372.423 169.332 372.467 168.135 372.492C167.51 372.492 166.884 372.492 166.278 372.517C166.164 372.517 166.025 372.517 165.876 372.517C165.415 372.43 164.938 372.487 164.51 372.681C164.416 372.741 164.302 372.8 164.183 372.865C163.686 373.138 163.055 373.476 162.976 374.107C162.813 375.467 162.798 376.842 162.931 378.206C163.12 379.855 164.232 380.729 166.139 380.729H418.683C419.464 380.769 420.233 380.524 420.848 380.039C421.544 379.364 421.95 378.445 421.98 377.475C422.102 375.944 422.067 374.404 421.876 372.88C421.878 372.805 421.859 372.731 421.821 372.666ZM421.473 377.401C421.454 378.241 421.113 379.041 420.52 379.636C419.996 380.04 419.343 380.242 418.683 380.203H166.139C164.481 380.203 163.597 379.527 163.438 378.131C163.307 376.809 163.322 375.476 163.483 374.156C163.527 373.784 163.979 373.526 164.421 373.302C164.55 373.227 164.674 373.163 164.784 373.093C164.961 373.008 165.158 372.97 165.355 372.984C165.519 372.984 165.687 372.984 165.851 372.984C166.015 372.984 166.154 373.009 166.293 372.984C166.899 372.984 167.53 372.984 168.16 372.984C169.357 372.984 170.613 372.914 171.89 372.85C172.669 372.81 173.533 372.209 174.293 371.677C174.551 371.494 174.79 371.325 175.008 371.181L222.307 342.802C222.88 342.489 223.525 342.33 224.179 342.34H360.643C361.291 342.331 361.931 342.49 362.5 342.802C362.589 342.862 362.679 342.912 362.763 342.961L362.887 343.036L406.785 369.417C408.02 370.138 409.344 370.695 410.722 371.076C412.038 371.459 413.324 371.717 414.874 372.02C415.311 372.105 415.758 372.199 416.185 372.293C417.178 372.502 418.211 372.726 419.244 372.85C419.951 372.935 420.662 372.983 421.374 372.994C421.552 374.456 421.586 375.932 421.473 377.401Z" fill="black"/>
<path d="M420.689 372.179L362.649 341.113C362.032 340.809 361.351 340.656 360.663 340.666H224.179C223.491 340.655 222.81 340.808 222.193 341.113L164.138 372.179C162.306 373.173 163.577 374.857 166.124 374.857H418.668C421.245 374.857 422.516 373.158 420.689 372.179Z" fill="#474C4A"/>
<path d="M396.371 368.478L349.46 343.369C348.959 343.12 348.405 342.995 347.846 343.006H237.552C236.991 342.995 236.435 343.119 235.933 343.369L189.021 368.478C187.532 369.268 188.569 370.644 190.64 370.644H394.777C396.823 370.624 397.851 369.268 396.371 368.478Z" fill="#777777"/>
<path d="M327.134 367.211L312.887 359.585C312.733 359.51 312.562 359.472 312.391 359.476H278.897C278.725 359.472 278.554 359.509 278.4 359.585L264.178 367.211C263.726 367.454 264.039 367.872 264.675 367.872H326.642C327.273 367.872 327.581 367.454 327.134 367.211Z" fill="#474C4A"/>
<path d="M363.086 187.021H212.351C208.404 187.021 205.205 190.222 205.205 194.17V249.009C205.205 252.957 208.404 256.158 212.351 256.158H363.086C367.032 256.158 370.232 252.957 370.232 249.009V194.17C370.232 190.222 367.032 187.021 363.086 187.021Z" fill="#C5DEFD"/>
<path d="M364.72 260.406H321.056C317.606 260.406 314.809 263.204 314.809 266.656V289.698C314.809 293.15 317.606 295.948 321.056 295.948H364.72C368.17 295.948 370.967 293.15 370.967 289.698V266.656C370.967 263.204 368.17 260.406 364.72 260.406Z" fill="#C5DEFD"/>
<path d="M303.278 263.844H208.159C207.4 263.846 206.673 264.149 206.136 264.686C205.6 265.223 205.297 265.951 205.294 266.71C205.297 267.47 205.6 268.197 206.136 268.734C206.673 269.272 207.4 269.574 208.159 269.577H303.278C304.038 269.574 304.765 269.272 305.302 268.734C305.838 268.197 306.141 267.47 306.144 266.71C306.141 265.951 305.838 265.223 305.302 264.686C304.765 264.149 304.038 263.846 303.278 263.844Z" fill="#474C4A"/>
<path d="M303.278 276.458H208.159C207.4 276.459 206.672 276.761 206.135 277.299C205.598 277.836 205.296 278.564 205.294 279.324C205.297 280.084 205.6 280.811 206.136 281.348C206.673 281.886 207.4 282.188 208.159 282.191H303.278C304.038 282.188 304.765 281.886 305.302 281.348C305.838 280.811 306.141 280.084 306.144 279.324C306.141 278.565 305.838 277.837 305.302 277.3C304.765 276.763 304.038 276.46 303.278 276.458Z" fill="#474C4A"/>
<path d="M284.94 276.458H208.159C207.4 276.459 206.672 276.761 206.135 277.299C205.598 277.836 205.296 278.564 205.294 279.324C205.297 280.084 205.6 280.811 206.136 281.348C206.673 281.886 207.4 282.188 208.159 282.191H284.94C285.699 282.188 286.426 281.886 286.963 281.348C287.5 280.811 287.803 280.084 287.805 279.324C287.804 278.564 287.502 277.836 286.964 277.299C286.427 276.761 285.699 276.459 284.94 276.458Z" fill="#1A7DF9"/>
<path d="M257.435 263.844H208.159C207.4 263.846 206.673 264.149 206.136 264.686C205.6 265.223 205.297 265.951 205.294 266.71C205.297 267.47 205.6 268.197 206.136 268.734C206.673 269.272 207.4 269.574 208.159 269.577H257.435C258.194 269.574 258.921 269.272 259.458 268.734C259.995 268.197 260.297 267.47 260.3 266.71C260.297 265.951 259.995 265.223 259.458 264.686C258.921 264.149 258.194 263.846 257.435 263.844Z" fill="#1A7DF9"/>
<path d="M259.009 273.015C262.091 273.015 264.59 270.515 264.59 267.431C264.59 264.347 262.091 261.846 259.009 261.846C255.926 261.846 253.427 264.347 253.427 267.431C253.427 270.515 255.926 273.015 259.009 273.015Z" fill="#0A26C3"/>
<path d="M258.373 264.49C258.323 264.444 258.26 264.414 258.193 264.404C258.127 264.393 258.058 264.402 257.996 264.43C257.934 264.458 257.882 264.504 257.846 264.561C257.81 264.618 257.791 264.685 257.792 264.753V269.771C257.792 269.838 257.811 269.904 257.848 269.96C257.885 270.017 257.937 270.062 257.999 270.089C258.06 270.116 258.128 270.125 258.195 270.115C258.261 270.104 258.323 270.074 258.373 270.029L261.189 267.545C261.225 267.512 261.254 267.472 261.274 267.427C261.294 267.382 261.304 267.333 261.304 267.284C261.304 267.235 261.294 267.186 261.274 267.141C261.254 267.097 261.225 267.056 261.189 267.023L258.373 264.49Z" fill="white"/>
<path d="M286.509 285.331C289.592 285.331 292.091 282.831 292.091 279.747C292.091 276.663 289.592 274.163 286.509 274.163C283.426 274.163 280.928 276.663 280.928 279.747C280.928 282.831 283.426 285.331 286.509 285.331Z" fill="#0A26C3"/>
<path d="M285.878 276.806C285.829 276.76 285.767 276.731 285.7 276.72C285.634 276.709 285.565 276.718 285.504 276.746C285.442 276.773 285.39 276.818 285.353 276.874C285.317 276.931 285.297 276.997 285.297 277.064V282.067C285.297 282.134 285.317 282.2 285.353 282.257C285.39 282.313 285.442 282.358 285.504 282.385C285.565 282.413 285.634 282.422 285.7 282.411C285.767 282.4 285.829 282.37 285.878 282.325L288.694 279.841C288.76 279.775 288.796 279.686 288.796 279.593C288.796 279.5 288.76 279.41 288.694 279.344L285.878 276.806Z" fill="white"/>
<path d="M303.278 288.222H208.159C207.4 288.222 206.671 288.524 206.133 289.062C205.596 289.6 205.294 290.329 205.294 291.089C205.294 291.849 205.596 292.578 206.133 293.116C206.671 293.654 207.4 293.956 208.159 293.956H303.278C304.038 293.956 304.767 293.654 305.304 293.116C305.842 292.578 306.144 291.849 306.144 291.089C306.144 290.329 305.842 289.6 305.304 289.062C304.767 288.524 304.038 288.222 303.278 288.222Z" fill="#474C4A"/>
<path d="M233.39 288.222H208.159C207.4 288.222 206.671 288.524 206.133 289.062C205.596 289.6 205.294 290.329 205.294 291.089C205.294 291.849 205.596 292.578 206.133 293.116C206.671 293.654 207.4 293.956 208.159 293.956H233.39C234.15 293.956 234.879 293.654 235.416 293.116C235.954 292.578 236.256 291.849 236.256 291.089C236.256 290.329 235.954 289.6 235.416 289.062C234.879 288.524 234.15 288.222 233.39 288.222Z" fill="#1A7DF9"/>
<path d="M234.94 296.798C238.022 296.798 240.521 294.297 240.521 291.213C240.521 288.129 238.022 285.629 234.94 285.629C231.857 285.629 229.358 288.129 229.358 291.213C229.358 294.297 231.857 296.798 234.94 296.798Z" fill="#0A26C3"/>
<path d="M234.309 288.272C234.259 288.227 234.197 288.197 234.131 288.187C234.064 288.176 233.996 288.185 233.935 288.212C233.873 288.239 233.821 288.284 233.784 288.341C233.747 288.397 233.728 288.463 233.728 288.531V293.534C233.728 293.601 233.747 293.667 233.784 293.723C233.821 293.78 233.873 293.825 233.935 293.852C233.996 293.879 234.064 293.888 234.131 293.878C234.197 293.867 234.259 293.837 234.309 293.792L237.12 291.308C237.157 291.276 237.188 291.236 237.208 291.191C237.229 291.146 237.24 291.097 237.24 291.047C237.24 290.997 237.229 290.948 237.208 290.903C237.188 290.858 237.157 290.818 237.12 290.786L234.309 288.272Z" fill="white"/>
<path d="M358.791 196.232H217.282C216.431 196.232 215.742 196.921 215.742 197.77C215.742 198.619 216.431 199.307 217.282 199.307H358.791C359.641 199.307 360.33 198.619 360.33 197.77C360.33 196.921 359.641 196.232 358.791 196.232Z" fill="#808080"/>
<path d="M336.683 204.241H217.282C216.431 204.241 215.742 204.929 215.742 205.778C215.742 206.628 216.431 207.316 217.282 207.316H336.683C337.533 207.316 338.222 206.628 338.222 205.778C338.222 204.929 337.533 204.241 336.683 204.241Z" fill="#808080"/>
<path d="M348.576 212.244H217.282C216.431 212.244 215.742 212.933 215.742 213.782C215.742 214.631 216.431 215.32 217.282 215.32H348.576C349.426 215.32 350.115 214.631 350.115 213.782C350.115 212.933 349.426 212.244 348.576 212.244Z" fill="#808080"/>
<path d="M358.791 228.257H217.282C216.431 228.257 215.742 228.945 215.742 229.794C215.742 230.644 216.431 231.332 217.282 231.332H358.791C359.641 231.332 360.33 230.644 360.33 229.794C360.33 228.945 359.641 228.257 358.791 228.257Z" fill="#808080"/>
<path d="M336.683 236.265H217.282C216.431 236.265 215.742 236.954 215.742 237.803C215.742 238.652 216.431 239.341 217.282 239.341H336.683C337.533 239.341 338.222 238.652 338.222 237.803C338.222 236.954 337.533 236.265 336.683 236.265Z" fill="#808080"/>
<path d="M348.576 244.269H217.282C216.431 244.269 215.742 244.957 215.742 245.807C215.742 246.656 216.431 247.344 217.282 247.344H348.576C349.426 247.344 350.115 246.656 350.115 245.807C350.115 244.957 349.426 244.269 348.576 244.269Z" fill="#808080"/>
<path d="M328.028 220.253H217.282C216.431 220.253 215.742 220.942 215.742 221.791C215.742 222.64 216.431 223.328 217.282 223.328H328.028C328.878 223.328 329.567 222.64 329.567 221.791C329.567 220.942 328.878 220.253 328.028 220.253Z" fill="#808080"/>
<path d="M378.471 198.987C378.975 190.147 373.652 182.654 366.582 182.252C359.512 181.849 353.373 188.688 352.87 197.528C352.366 206.368 357.69 213.861 364.759 214.264C371.829 214.667 377.968 207.827 378.471 198.987Z" fill="#3C6988"/>
<path d="M381.03 199.134C381.533 190.294 376.21 182.801 369.14 182.398C362.071 181.995 355.932 188.835 355.428 197.675C354.925 206.515 360.248 214.008 367.318 214.411C374.388 214.814 380.527 207.974 381.03 199.134Z" fill="#0E385C"/>
<path d="M364.844 184.393C356.005 189.724 355.295 203.004 361.313 210.62C362.519 212.207 364.14 213.431 365.996 214.157C367.2 214.599 368.487 214.77 369.764 214.659C371.042 214.549 372.28 214.158 373.39 213.516C376.816 211.673 379.543 207.972 380.839 204.534C382.979 198.915 382.303 192.655 378.316 188.079C375.063 184.318 369.566 181.546 364.844 184.393Z" fill="#011D40"/>
<path d="M404.942 312.636C404.495 306.634 403.716 300.429 400.548 295.312C391.977 281.48 371.374 282.221 363.473 295.764C358.011 305.144 357.832 315.393 354.495 325.384C348.879 342.191 340.159 357.762 331.385 373.158C326.136 382.369 320.738 391.908 319.646 402.47C318.722 411.383 321.741 421.259 328.554 426.685C329.817 427.687 331.204 428.522 332.681 429.169C336.157 430.704 340.065 431.156 343.873 431.012C355.553 430.585 366.547 424.817 375.277 417.046C384.007 409.276 390.77 399.569 397.245 389.836C399.063 387.103 400.89 384.316 401.854 381.176C402.996 377.44 402.847 373.441 403.467 369.581C404.108 365.606 406 361.96 406.213 357.99C406.462 353.38 406.149 348.486 406.149 343.831C406.149 333.423 405.702 323.014 404.942 312.636Z" fill="#FFD6C7"/>
<path d="M462.431 208.508C461.08 203.943 461.16 199.069 461.492 194.344C462.416 181.293 460.807 166.945 453.746 155.637C439.315 132.535 406.03 137.98 383.892 143.351C377.397 144.926 370.599 147.057 364.983 150.763C358.527 155.031 355.806 160.725 356.7 168.321C357.768 177.363 361.303 185.754 364.243 194.285C367.113 202.611 369.839 210.858 365.39 219.23C362.694 224.307 357.941 227.949 355.598 233.175C354.897 234.745 354.311 236.454 354.56 238.143C354.826 239.4 355.317 240.599 356.01 241.681L362.336 253.013C362.421 253.217 362.567 253.391 362.753 253.51C363.003 253.601 363.278 253.601 363.528 253.51C369.085 252.019 375.729 252.238 381.335 253.356C385.035 254.096 388.67 255.199 392.424 255.661C396.004 256.098 399.917 255.805 403.487 255.328C405.528 255.055 407.688 254.613 409.744 254.126L411.398 253.719C414.189 253.008 416.632 251.095 419.417 250.241C424.383 248.721 430.188 249.545 435.362 249.525L449.346 249.471C455.191 249.446 457.51 246.872 459.561 241.661C461.77 236.036 461.741 229.778 459.481 224.173C460.982 227.497 461.926 231.045 462.277 234.676C462.621 238.322 461.892 241.99 460.181 245.228C459.392 246.644 458.135 248.134 458.051 249.794C459.844 249.828 461.413 250.519 463.166 250.956C463.662 251.09 468.464 252.049 468.231 252.447C469.588 250.151 470.779 247.762 471.796 245.298C475.074 236.752 473.604 227.338 468.842 219.692C466.552 215.995 463.697 212.771 462.431 208.508Z" fill="#252421"/>
<path d="M359.521 186.37L359.372 185.337C358.061 176.111 356.705 166.572 361.785 158.419L360.985 157.923C355.722 166.368 357.102 176.081 358.443 185.476L358.587 186.509C359.039 189.704 360.181 193.087 361.383 196.669C364.024 204.509 366.751 212.617 362.286 219.259C361.427 220.546 360.399 221.828 359.406 223.07C355.975 227.362 352.425 231.799 353.944 237.905C354.403 239.498 355.083 241.018 355.965 242.421C357.609 245.312 359.357 248.194 361.164 250.986L361.954 250.489C360.161 247.707 358.418 244.84 356.779 241.964C355.945 240.633 355.299 239.194 354.858 237.686C353.457 232.037 356.844 227.78 360.151 223.666C361.144 222.409 362.197 221.113 363.081 219.796C367.803 212.766 364.998 204.434 362.286 196.381C361.095 192.824 359.972 189.48 359.521 186.37Z" fill="#262320"/>
<path d="M450.592 214.252C445.185 206.625 444.971 196.575 445.393 187.235C445.696 180.543 446.158 173.513 443.268 167.471C440.457 161.599 434.747 157.495 428.599 155.359C422.452 153.223 415.842 152.84 409.337 152.786C395.602 152.671 380.829 154.341 370.485 163.373C371.717 168.574 373.329 173.679 375.307 178.645C377.06 183.191 380.128 187.588 379.552 192.715C379.056 197.186 376.925 201.29 376.707 205.821C376.424 211.623 377.492 217.486 377.953 223.259C378.519 230.319 378.366 237.731 375.148 244.041C374.03 246.227 372.521 248.671 373.44 250.951C374.621 253.873 378.644 252.939 381.042 253.435C384.856 254.151 388.55 255.184 392.434 255.661C396.014 256.098 399.927 255.805 403.497 255.328C405.538 255.055 407.698 254.613 409.754 254.126L411.408 253.719C414.198 253.008 416.642 251.095 419.427 250.241C424.393 248.721 430.198 249.545 435.372 249.525C441.47 249.501 453.463 251.369 458.016 245.71C459.268 244.155 459.422 242.014 459.506 240.021C459.809 234.134 460.037 227.889 457.157 222.747C455.424 219.592 452.668 217.173 450.592 214.252Z" fill="#0A0A09"/>
<path d="M377.04 247.414C375.744 240.21 374.398 232.758 374.408 225.49V202.303C374.407 202.116 374.332 201.938 374.2 201.806C374.068 201.674 373.889 201.599 373.703 201.598C373.61 201.597 373.518 201.615 373.432 201.65C373.346 201.685 373.268 201.737 373.203 201.803C373.137 201.868 373.085 201.946 373.05 202.032C373.015 202.118 372.997 202.21 372.998 202.303V225.49C372.998 232.882 374.348 240.394 375.654 247.667C376.414 251.895 377.204 256.267 377.7 260.52C379.94 279.632 378.758 297.617 374.08 315.498C373.087 319.268 372.009 323.099 370.962 326.805C367.361 339.519 363.637 352.639 363.086 366.148C362.589 378.916 362.366 391.933 362.172 404.522C362.088 410.081 362.003 415.829 361.889 421.478C361.887 421.665 361.957 421.845 362.087 421.98C362.216 422.115 362.393 422.193 362.579 422.199C362.764 422.199 362.941 422.126 363.073 421.997C363.205 421.868 363.281 421.693 363.285 421.508C363.399 415.854 363.488 410.081 363.573 404.542C363.761 391.962 363.96 378.956 364.481 366.208C365.028 352.888 368.727 339.827 372.307 327.193C373.355 323.476 374.443 319.641 375.436 315.855C380.153 297.801 381.35 279.647 379.09 260.356C378.599 256.078 377.804 251.682 377.04 247.414Z" fill="white"/>
<path d="M425.719 233.876C424.314 227.586 422.839 221.286 421.647 214.957C421.275 212.97 421.29 211.663 419.775 210.262C417.888 208.518 415.455 207.485 413.618 205.572C411.254 203.088 409.501 199.918 409.312 196.505C409.258 195.512 409.337 194.478 409.312 193.465C409.094 188.76 407.743 187.453 403.587 187.786C399.43 188.119 395.145 186.728 391.376 185.243C384.98 182.758 380.69 178.491 376.508 173.066C375.217 171.386 370.053 161.45 367.645 165.439C362.624 173.746 362.098 186.182 361.512 195.661C360.638 209.79 362.103 228.908 378.395 233.776C383.709 235.366 387.498 237.845 389.663 243.365C391.565 248.219 391.877 253.53 392.146 258.741L393.337 280.104C393.496 282.872 392.791 286.066 395.09 287.865C397.297 289.544 399.867 290.682 402.594 291.188C406.397 291.929 410.34 291.447 414.134 290.647C419.636 289.489 425.198 287.502 429.662 284.188C431.664 282.721 433.42 280.945 434.866 278.927C435.66 277.804 436.356 276.552 436.45 275.181C436.446 274.022 436.225 272.875 435.799 271.798C431.728 259.362 428.574 246.644 425.719 233.876Z" fill="#FFD6C7"/>
<path d="M463.677 419.551C462.56 414.086 463.906 407.662 462.684 402.565C460.35 392.688 447.39 388.107 440.199 387.124C431.181 385.886 422.054 387.456 412.997 386.796C400.786 385.901 388.893 380.968 376.662 380.958C369.214 380.958 360.797 383.621 357.296 391.555C356.049 394.372 355.568 397.606 355.508 400.801C355.295 412.302 360.856 423.684 369.303 429.04C372.585 431.116 376.191 432.319 379.801 433.337C382.303 434.046 384.828 434.677 387.373 435.23C394.863 436.832 402.456 437.906 410.097 438.445C413.742 438.718 417.545 439.155 421.205 439.09C424.363 439.031 427.114 436.81 430.144 436.11C433.734 435.265 436.882 436.149 440.393 436.82C444.058 437.525 447.841 437.948 451.546 437.446C454.525 437.043 457.42 436.055 460.276 435.076C462.029 434.47 466.93 433.675 467.675 431.638C468.012 430.719 466.746 429.522 466.403 428.657C465.223 425.71 464.31 422.662 463.677 419.551Z" fill="#B5C686"/>
<path d="M429.389 271.261C429.391 270.81 429.331 270.36 429.21 269.925C429.135 270.378 429.197 270.844 429.389 271.261Z" fill="#FDAF14"/>
<path d="M472.243 372.214C469.82 347.979 466.284 323.879 462.575 299.808C462.257 297.746 461.885 295.565 460.504 294C459.337 292.684 457.634 292.013 456.035 291.288C450.523 288.804 445.274 285.48 441.555 280.621C440.19 278.77 438.978 276.811 437.93 274.764C436.862 272.776 437.965 270.292 437.125 268.186C436.986 267.8 436.762 267.45 436.47 267.162C436.201 266.926 435.896 266.735 435.566 266.596C434.824 266.22 434.009 266.01 433.178 265.98C431.559 265.98 429.498 268.067 429.205 269.955C429.326 270.39 429.386 270.839 429.384 271.291C429.192 270.873 429.13 270.408 429.205 269.955C429.009 269.213 428.656 268.523 428.171 267.93C427.685 267.336 427.077 266.855 426.389 266.517C425.317 267.54 424.44 268.75 423.802 270.089C423.647 270.403 423.536 270.737 423.475 271.082C423.637 271.505 423.765 271.94 423.857 272.384C423.685 272.22 423.558 272.013 423.491 271.784C423.424 271.556 423.418 271.314 423.475 271.082C422.777 269.256 421.477 267.722 419.79 266.735C419.613 266.622 419.413 266.552 419.204 266.531C418.912 266.56 418.638 266.688 418.429 266.894C416.911 268.141 415.805 269.817 415.256 271.703C415.538 272.232 415.756 272.793 415.907 273.373C415.216 273.442 415.053 272.414 415.241 271.743V271.703C414.267 269.877 412.616 268.506 410.643 267.883C409.901 267.57 409.069 267.546 408.309 267.814C407.55 268.082 406.918 268.624 406.536 269.333C405.755 270.453 405.272 271.755 405.136 273.114C404.088 271.321 402.127 269.964 400.056 270.079C397.985 270.193 396.044 272.066 396.262 274.153C395.733 273.178 395.037 272.303 394.206 271.569C393.788 271.205 393.284 270.955 392.741 270.842C392.199 270.728 391.636 270.757 391.108 270.923C390.63 271.154 390.212 271.492 389.885 271.909C389.558 272.327 389.331 272.814 389.221 273.333C389.01 274.371 388.869 275.421 388.799 276.478C388.188 281.014 384.449 284.799 381.638 288.188C378.3 292.082 374.74 295.781 370.977 299.267C360.603 309.173 352.042 318.483 346.058 331.743C341.346 342.177 341.694 354.1 342.031 365.293C342.404 377.59 341.882 387.188 334.439 397.586C333.267 399.226 331.956 400.826 331.285 402.723C330.615 404.621 330.645 406.936 331.98 408.442C333.589 410.255 336.345 410.3 338.764 410.295C339.449 410.295 340.139 410.295 340.824 410.295C344.779 410.382 348.724 410.714 352.638 411.288C358.94 412.198 365.137 413.723 371.433 414.672C378.634 415.755 385.928 416.078 393.203 416.371C413.043 417.176 432.885 417.8 452.728 418.244C456.462 418.328 460.281 418.393 463.831 417.25C471.464 414.766 474.905 408.442 474.483 400.915C473.966 391.336 473.187 381.763 472.243 372.214Z" fill="#B5C686"/>
<path d="M423.862 272.389C423.77 271.945 423.642 271.51 423.479 271.087C423.423 271.319 423.429 271.561 423.496 271.789C423.563 272.018 423.689 272.225 423.862 272.389Z" fill="#FDAF14"/>
<path d="M415.912 273.378C415.761 272.798 415.542 272.237 415.261 271.708V271.748C415.058 272.419 415.221 273.447 415.912 273.378Z" fill="#FDAF14"/>
<path d="M423.862 272.389C423.77 271.945 423.642 271.51 423.479 271.087C423.423 271.319 423.429 271.561 423.496 271.789C423.563 272.018 423.689 272.225 423.862 272.389Z" fill="#7F963E"/>
<path d="M429.389 271.261C429.391 270.81 429.331 270.36 429.21 269.925C429.135 270.378 429.197 270.844 429.389 271.261Z" fill="#7F963E"/>
<path d="M462.56 299.808C462.242 297.746 461.87 295.565 460.489 294C459.322 292.684 457.619 292.013 456.02 291.288C450.508 288.804 445.259 285.48 441.54 280.621C440.175 278.77 438.963 276.811 437.915 274.764C436.847 272.776 437.95 270.292 437.11 268.186C436.971 267.8 436.747 267.45 436.455 267.162C436.186 266.926 435.881 266.735 435.551 266.596C434.809 266.22 433.994 266.01 433.163 265.98C431.544 265.98 429.483 268.067 429.19 269.955C429.311 270.39 429.372 270.839 429.369 271.291C429.177 270.873 429.115 270.408 429.19 269.955C428.994 269.213 428.641 268.523 428.156 267.93C427.67 267.336 427.062 266.855 426.375 266.517C425.302 267.54 424.425 268.75 423.787 270.089C423.632 270.403 423.521 270.737 423.46 271.082C423.622 271.505 423.75 271.94 423.842 272.384C423.67 272.22 423.544 272.013 423.476 271.784C423.409 271.556 423.404 271.314 423.46 271.082C422.762 269.256 421.462 267.722 419.775 266.735C419.598 266.622 419.398 266.552 419.189 266.531C418.897 266.56 418.623 266.688 418.414 266.894C416.901 268.138 415.797 269.808 415.246 271.688C415.526 272.223 415.743 272.788 415.892 273.373C415.202 273.442 415.038 272.414 415.226 271.743C415.226 271.743 415.226 271.708 415.226 271.688C413.24 267.918 408.413 266.089 405.821 269.999C403.651 273.278 405.24 278.843 405.186 282.608C405.097 288.453 404.22 294.258 402.579 299.868C399.262 311.324 393.367 321.872 387.264 332.042C377.576 348.198 366.954 364.742 365.142 383.497C364.228 392.936 365.638 402.425 367.56 411.696C367.642 412.45 367.956 413.16 368.459 413.728C369.095 414.304 370.033 414.359 370.892 414.384C373.797 414.463 376.901 414.339 380.019 414.284C383.947 414.22 387.895 414.284 391.48 414.98C396.342 415.939 400.602 417.687 405.742 418.075C415.922 418.84 426.052 417.578 436.227 417.846C448.527 418.184 454.103 412.878 458.165 401.183C464.288 383.596 465.241 364.792 464.879 346.33C464.601 330.248 465.013 315.84 462.56 299.808Z" fill="#7F963E"/>
<path d="M415.912 273.378C415.763 272.793 415.546 272.228 415.266 271.693C415.266 271.693 415.266 271.728 415.266 271.748C415.058 272.419 415.221 273.447 415.912 273.378Z" fill="#7F963E"/>
<path d="M439.891 315.925C440.512 314.708 441.163 313.466 441.793 312.263C445.766 304.697 449.858 296.862 449.927 288.297H448.825C448.765 296.609 444.728 304.314 440.82 311.761C440.189 312.969 439.539 314.216 438.913 315.438C433.694 325.702 430.163 335.877 428.43 345.689C426.444 356.947 426.866 367.519 429.701 377.118C431.484 383.159 434.265 388.952 436.952 394.556C440.462 401.864 444.092 409.42 445.438 417.484L446.521 417.3C445.15 409.088 441.485 401.457 437.945 394.079C435.273 388.514 432.512 382.766 430.754 376.81C427.968 367.37 427.551 356.967 429.513 345.883C431.226 336.165 434.722 326.09 439.891 315.925Z" fill="#516028"/>
<path d="M457.42 373.337C456.202 370.199 455.153 366.998 454.277 363.748C452.211 355.516 452.291 346.613 454.441 336.533C455.489 331.669 457.589 323.615 463.657 309.963L462.664 309.516C456.551 323.273 454.436 331.376 453.378 336.304C451.164 346.548 451.114 355.615 453.219 364.017C454.107 367.303 455.167 370.54 456.397 373.714C456.983 375.304 457.584 376.949 458.13 378.573C462.201 390.731 463.734 403.596 462.634 416.371L463.732 416.465C464.845 403.536 463.293 390.516 459.173 378.211C458.612 376.586 458.006 374.932 457.42 373.337Z" fill="#516028"/>
<path d="M416.999 305.77C414.114 311.155 410.871 316.471 407.743 321.608C404.267 327.287 400.697 333.164 397.563 339.171C384.992 363.405 379.161 390.575 380.68 417.837L381.777 417.772C380.27 390.707 386.064 363.734 398.551 339.678C401.665 333.716 405.235 327.843 408.686 322.18C411.83 317.028 415.077 311.702 417.977 306.282C425.426 292.371 428.991 280.666 429.175 269.408H428.078C427.889 280.477 424.373 292.033 416.999 305.77Z" fill="#516028"/>
<path d="M392.791 303.057C390.129 308.026 387.11 312.884 384.19 317.594C381.37 322.14 378.46 326.84 375.858 331.619C362.452 356.421 356.63 384.618 359.113 412.704L360.206 412.605C357.74 384.727 363.519 356.739 376.826 332.121C379.408 327.367 382.313 322.682 385.124 318.151C388.054 313.426 391.083 308.537 393.759 303.549C400.066 291.809 403.194 281.426 403.309 271.803H402.211C402.072 281.252 398.988 291.472 392.791 303.057Z" fill="#516028"/>
<path d="M357.415 319.482C353.442 326.895 351.064 333.761 350.155 340.478C349.033 348.749 350.125 357.171 351.183 365.318C351.68 369.079 352.176 372.964 352.454 376.78C352.951 383.512 352.509 389.618 351.148 394.914C349.529 401.228 346.624 406.261 342.503 409.873L343.228 410.697C347.518 406.941 350.542 401.72 352.216 395.187C353.601 389.772 354.048 383.551 353.552 376.7C353.269 372.855 352.762 368.95 352.271 365.179C351.223 357.106 350.14 348.784 351.243 340.627C352.132 334.049 354.465 327.302 358.378 320.009C361.894 313.456 366.324 307.141 370.53 301.239L369.636 300.598C365.395 306.535 360.961 312.874 357.415 319.482Z" fill="#516028"/>
<path d="M426.643 241.224C426.146 237.518 426.459 233.652 425.525 230.045C424.487 226.021 422.804 222.096 422.764 217.864C420.406 219.25 417.997 220.586 415.653 222.017C414.766 222.56 413.889 223.117 413.022 223.686C410.049 225.719 406.89 227.464 403.587 228.898C399.703 230.517 395.79 232.082 391.783 233.369C389.892 233.959 387.948 234.36 385.978 234.566C384.985 234.671 383.992 234.72 383.033 234.78C382.583 234.797 382.134 234.748 381.698 234.636C381.282 234.592 380.871 234.519 380.466 234.417L381.792 235.038C382.205 235.216 382.602 235.428 382.979 235.674C383.664 236.141 384.23 236.792 384.876 237.319C387.075 239.218 388.731 241.668 389.673 244.418C390.075 245.511 390.467 246.609 390.805 247.722C391.08 248.751 391.278 249.799 391.396 250.857C391.76 253.272 392.028 255.694 392.2 258.125C392.046 255.969 394.479 252.039 395.512 250.261C397.166 247.399 409.188 232.415 411.939 239.366C413.215 242.575 410.996 247.136 410.126 250.216C408.994 254.237 407.953 258.278 407.003 262.338C406.318 265.299 405.679 268.269 405.086 271.246C404.644 273.452 403.597 276.309 404.053 278.554C404.094 278.824 404.209 279.078 404.384 279.287C404.559 279.497 404.788 279.654 405.047 279.742C405.369 279.791 405.699 279.748 405.999 279.618C406.298 279.488 406.555 279.276 406.74 279.007C407.152 278.51 407.425 277.889 407.867 277.412C408.562 276.662 409.272 276.975 410.082 276.751C411.075 276.478 412.128 275.633 413.027 275.146C416.463 273.273 419.904 271.4 423.42 269.681C425.809 268.462 428.27 267.389 430.789 266.467C431.782 266.119 433.133 266.079 433.476 265.16C433.749 264.415 432.979 262.463 432.79 261.683C431.097 254.707 427.651 248.408 426.643 241.224Z" fill="#FF9C85"/>
<path d="M380.485 234.402L380.332 234.333C380.38 234.362 380.432 234.385 380.485 234.402Z" fill="#801906"/>
<path d="M386.504 189.689C385.387 188.785 383.451 188.199 381.817 187.911C379.52 187.541 377.172 187.63 374.909 188.174L374.616 188.268C373.201 188.765 371.364 190.375 372.63 191.403C373.653 192.223 375.53 191.562 376.821 191.403C378.646 191.194 380.483 191.121 382.318 191.185C383.49 191.219 385.248 191.647 386.38 191.239C387.393 190.891 387.095 190.166 386.504 189.689Z" fill="black"/>
<path d="M386.698 189.441C385.705 188.626 383.883 187.95 381.871 187.602C379.984 187.289 376.975 187.24 374.825 187.871L374.517 187.97C373.375 188.362 372.094 189.366 371.92 190.36C371.877 190.603 371.905 190.854 371.999 191.083C372.093 191.311 372.25 191.508 372.451 191.651C372.911 191.997 373.476 192.173 374.05 192.148C374.677 192.125 375.3 192.046 375.913 191.91C376.26 191.845 376.588 191.786 376.876 191.751C378.689 191.545 380.515 191.474 382.338 191.537C382.671 191.537 383.058 191.592 383.47 191.636C384.493 191.756 385.65 191.89 386.514 191.572C387.135 191.348 387.319 190.991 387.364 190.732C387.379 190.477 387.325 190.222 387.208 189.995C387.091 189.768 386.915 189.576 386.698 189.441ZM386.733 190.608C386.703 190.782 386.445 190.901 386.291 190.956C385.566 191.224 384.483 191.1 383.53 190.991C383.108 190.941 382.706 190.896 382.348 190.881C380.498 190.822 378.646 190.897 376.806 191.105C376.494 191.14 376.156 191.204 375.813 191.269C374.746 191.468 373.529 191.696 372.859 191.16C372.746 191.087 372.657 190.983 372.603 190.86C372.549 190.737 372.533 190.601 372.556 190.469C372.68 189.744 373.802 188.884 374.736 188.561L375.014 188.472C377.232 187.947 379.531 187.863 381.782 188.223C383.689 188.541 385.387 189.177 386.321 189.932C386.589 190.161 386.763 190.429 386.733 190.608Z" fill="black"/>
<path d="M360.39 188.377C360.297 188.484 360.218 188.603 360.156 188.73C359.63 189.788 360.737 190.524 361.676 190.653C362.566 190.706 363.448 190.855 364.308 191.095C365.529 191.532 368.101 192.536 367.843 190.211C367.505 187.155 362.197 186.256 360.39 188.377Z" fill="black"/>
<path d="M365.246 187.18C363.26 186.569 361.169 186.981 360.151 188.174C360.043 188.302 359.949 188.442 359.873 188.591C359.768 188.789 359.713 189.01 359.713 189.235C359.713 189.459 359.768 189.68 359.873 189.878C360.069 190.18 360.33 190.434 360.636 190.623C360.943 190.811 361.288 190.928 361.646 190.966L362.411 191.055C363.023 191.09 363.629 191.204 364.213 191.393L364.347 191.438C365.093 191.752 365.884 191.943 366.691 192.004C366.924 192.03 367.16 191.996 367.376 191.907C367.593 191.818 367.784 191.677 367.932 191.495C368.08 191.313 368.181 191.097 368.224 190.867C368.267 190.637 368.253 190.399 368.181 190.176C368.002 188.79 366.915 187.692 365.246 187.18ZM367.302 191.214C366.756 191.642 365.316 191.125 364.546 190.847L364.412 190.802C363.78 190.595 363.124 190.47 362.46 190.429C362.222 190.429 361.964 190.38 361.72 190.345C361.46 190.321 361.209 190.241 360.983 190.109C360.758 189.978 360.564 189.799 360.414 189.585C360.355 189.475 360.324 189.352 360.324 189.227C360.324 189.102 360.355 188.979 360.414 188.869C360.467 188.766 360.532 188.669 360.608 188.581C361.457 187.588 363.319 187.25 365.042 187.781C366.463 188.214 367.386 189.138 367.525 190.265C367.567 190.43 367.569 190.602 367.53 190.767C367.491 190.933 367.413 191.086 367.302 191.214Z" fill="black"/>
<path d="M397.341 209.402C397.864 204.477 394.297 200.061 389.374 199.538C384.452 199.015 380.037 202.584 379.515 207.509C378.992 212.434 382.559 216.85 387.482 217.373C392.404 217.896 396.819 214.327 397.341 209.402Z" fill="#FF9C85"/>
<path d="M385.367 194.881C383.629 193.837 381.305 193.599 379.324 193.887C377.343 194.175 375.287 195.243 374.179 196.908C373.718 197.598 374.07 197.767 374.706 197.832C375.466 197.911 376.196 197.996 376.965 198.13C378.303 198.369 379.674 198.357 381.007 198.095C382.144 197.862 383.247 197.487 384.29 196.977C384.876 196.714 385.457 196.446 386.053 196.207C386.181 196.141 386.325 196.11 386.47 196.118C386.248 195.595 385.861 195.16 385.367 194.881Z" fill="#FF9C85"/>
<path d="M375.982 196.739C375.697 196.59 375.374 196.533 375.055 196.574C374.736 196.614 374.438 196.752 374.199 196.967C373.302 197.623 372.457 198.347 371.672 199.133C372.491 198.319 373.832 198.791 374.77 199.109C376.403 199.664 378.138 199.848 379.85 199.645C381.65 199.437 383.348 198.703 384.732 197.534C385.129 197.196 385.963 196.302 386.435 196.153C383.108 197.196 379.23 198.726 375.982 196.739Z" fill="black"/>
<path d="M386.385 196.009L385.482 196.297C382.423 197.29 378.957 198.393 376.047 196.61C375.733 196.436 375.372 196.366 375.016 196.408C374.66 196.449 374.326 196.602 374.06 196.843C373.157 197.507 372.306 198.237 371.513 199.029L371.736 199.253C372.476 198.518 373.723 198.94 374.631 199.253H374.676C375.894 199.664 377.17 199.875 378.455 199.879C378.913 199.878 379.371 199.85 379.826 199.794C381.656 199.586 383.384 198.839 384.791 197.648C384.896 197.559 385.02 197.439 385.169 197.3C385.534 196.902 385.962 196.567 386.435 196.307L386.341 196.004L386.385 196.009ZM385 197.082L384.632 197.42C383.272 198.571 381.601 199.292 379.83 199.491C378.142 199.694 376.429 199.514 374.82 198.965H374.775C374.171 198.726 373.532 198.585 372.883 198.547C372.757 198.547 372.631 198.557 372.506 198.577C373.073 198.056 373.67 197.568 374.294 197.117C374.509 196.923 374.777 196.798 375.064 196.758C375.351 196.718 375.643 196.765 375.903 196.893C378.882 198.731 382.388 197.633 385.491 196.64C385.342 196.774 385.154 196.933 385 197.082Z" fill="black"/>
<path d="M362.843 193.51C362.533 193.535 362.232 193.625 361.958 193.773C361.685 193.921 361.445 194.124 361.254 194.369C360.916 194.821 361.661 195.298 362.008 195.437C362.436 195.571 362.875 195.668 363.319 195.725C363.858 195.838 364.373 196.041 364.844 196.326C365.296 196.652 365.724 197.009 366.125 197.395C366.185 196.606 366.012 195.816 365.628 195.124C365.361 194.622 364.958 194.204 364.466 193.919C363.974 193.634 363.411 193.492 362.843 193.51Z" fill="#FF9C85"/>
<path d="M363.91 195.517C362.574 195.318 361.254 194.896 360.434 193.748C360.539 193.897 360.434 194.449 360.434 194.627C360.434 195.303 360.434 196.118 360.827 196.669C361.735 197.941 363.722 197.663 365.052 197.638C365.301 197.623 365.55 197.653 365.787 197.728C365.901 197.769 366.005 197.835 366.091 197.921C366.177 198.007 366.242 198.11 366.284 198.224C366.125 197.638 366.18 197.072 365.867 196.515C365.479 195.77 364.725 195.641 363.91 195.517Z" fill="black"/>
<path d="M366.363 197.603C366.333 197.207 366.225 196.82 366.046 196.466C365.549 195.606 364.695 195.472 363.935 195.363C362.897 195.209 361.422 194.866 360.563 193.659L360.305 193.838C360.335 194.022 360.335 194.21 360.305 194.394C360.305 194.488 360.305 194.573 360.305 194.627V194.697C360.226 195.411 360.372 196.132 360.722 196.759C361.561 197.931 363.205 197.867 364.526 197.812H365.077C365.307 197.796 365.538 197.823 365.758 197.892L365.812 197.743L365.772 197.897C365.869 197.928 365.957 197.982 366.029 198.054C366.102 198.125 366.156 198.213 366.19 198.309L366.473 198.229C366.424 198.023 366.388 197.814 366.363 197.603ZM365.867 197.603C365.611 197.52 365.341 197.485 365.072 197.499H364.511C363.265 197.549 361.72 197.613 360.981 196.575C360.673 196 360.546 195.345 360.618 194.697V194.627C360.618 194.583 360.618 194.508 360.618 194.424C360.618 194.339 360.618 194.295 360.618 194.23C361.557 195.224 362.897 195.527 363.871 195.676C364.764 195.81 365.36 195.944 365.758 196.62C365.916 196.941 366.011 197.29 366.036 197.648V197.683C365.98 197.647 365.922 197.615 365.862 197.589L365.867 197.603Z" fill="black"/>
<path d="M366.9 199.819C366.389 200.503 365.924 201.22 365.509 201.965C365.064 202.658 364.729 203.415 364.516 204.211C364.453 204.478 364.47 204.758 364.566 205.016C364.933 205.87 366.194 206.034 366.979 206.218L366.944 199.76C366.926 199.777 366.911 199.797 366.9 199.819Z" fill="#FF9C85"/>
<path d="M365.236 205.12C365.161 205.039 365.105 204.943 365.072 204.837C365.066 204.796 365.066 204.754 365.072 204.713C365.067 204.663 365.067 204.613 365.072 204.564C365.085 204.432 365.112 204.302 365.152 204.176C365.191 204.03 365.241 203.888 365.301 203.749C365.415 203.456 365.569 203.158 365.723 202.835C365.802 202.671 365.882 202.507 365.956 202.338C365.996 202.249 366.031 202.169 366.06 202.09L366.165 201.846C366.461 201.176 366.72 200.489 366.939 199.789C366.32 200.223 365.77 200.749 365.311 201.349L365.142 201.578L364.988 201.806C364.889 201.949 364.789 202.098 364.69 202.253C364.476 202.579 364.291 202.923 364.139 203.282C364.058 203.477 363.993 203.678 363.945 203.883C363.895 204.11 363.873 204.342 363.88 204.574C363.886 204.706 363.906 204.838 363.94 204.966C363.976 205.101 364.031 205.23 364.104 205.349C364.174 205.458 364.254 205.562 364.342 205.657L364.481 205.786L364.63 205.89C364.99 206.116 365.402 206.246 365.827 206.268C366.21 206.298 366.595 206.283 366.974 206.223C366.651 206.009 366.309 205.85 365.981 205.677C365.702 205.536 365.45 205.347 365.236 205.12Z" fill="#3D0000"/>
<g opacity="0.86">
<path opacity="0.86" d="M419.879 188.129C419.434 187.731 418.908 187.436 418.336 187.264C417.765 187.092 417.162 187.049 416.572 187.135C415.76 187.341 414.995 187.7 414.318 188.194C413.603 188.646 412.406 188.954 413.399 189.684C414 189.197 414.704 188.853 415.458 188.681C416.213 188.509 416.996 188.512 417.749 188.69C418.126 188.774 418.477 188.944 418.777 189.187C419.022 189.406 419.205 189.686 419.307 189.998C419.41 190.311 419.427 190.645 419.358 190.966C419.284 191.286 419.143 191.586 418.944 191.847C418.746 192.108 418.494 192.325 418.206 192.481C417.565 192.849 416.776 192.938 416.185 193.385C415.893 193.62 415.648 193.906 415.46 194.23C414.804 195.283 414.546 196.828 415.46 197.653C415.788 197.898 416.173 198.056 416.578 198.111C416.984 198.167 417.397 198.119 417.779 197.971C419.373 197.474 420.495 196.028 421.285 194.553C421.601 194.025 421.813 193.442 421.91 192.834C421.953 192.269 421.882 191.702 421.702 191.165C421.399 189.999 420.766 188.945 419.879 188.129Z" fill="white"/>
<path opacity="0.86" d="M420.103 187.891C419.623 187.463 419.054 187.146 418.438 186.963C417.822 186.78 417.173 186.735 416.537 186.832C415.691 187.04 414.894 187.409 414.189 187.92C414.059 188.005 413.901 188.089 413.747 188.169C413.25 188.417 412.783 188.666 412.753 189.118C412.724 189.57 413.126 189.838 413.25 189.937L413.449 190.086L413.637 189.927C414.2 189.467 414.86 189.143 415.568 188.978C416.276 188.814 417.012 188.814 417.719 188.979C418.046 189.041 418.354 189.178 418.618 189.381C418.826 189.563 418.982 189.797 419.069 190.059C419.156 190.321 419.172 190.601 419.115 190.871C419.052 191.147 418.93 191.407 418.759 191.632C418.588 191.857 418.37 192.044 418.121 192.178C417.854 192.319 417.575 192.435 417.287 192.526C416.852 192.652 416.44 192.847 416.066 193.102C415.743 193.361 415.472 193.678 415.266 194.036C414.516 195.238 414.303 196.938 415.341 197.857C415.781 198.229 416.343 198.425 416.92 198.408C417.272 198.405 417.622 198.35 417.958 198.244C419.373 197.792 420.619 196.59 421.647 194.672C421.982 194.109 422.204 193.486 422.303 192.839C422.353 192.233 422.28 191.623 422.089 191.045C421.746 189.823 421.056 188.728 420.103 187.891ZM421.592 192.764C421.5 193.331 421.301 193.876 421.007 194.369C420.053 196.143 418.936 197.241 417.679 197.638C417.348 197.765 416.991 197.808 416.64 197.764C416.288 197.72 415.953 197.59 415.663 197.385C414.889 196.694 415.097 195.343 415.708 194.359C415.875 194.069 416.094 193.811 416.354 193.599C416.676 193.382 417.029 193.215 417.401 193.102C417.727 193.003 418.041 192.872 418.34 192.71C418.667 192.531 418.953 192.285 419.178 191.988C419.403 191.691 419.562 191.349 419.646 190.986C419.728 190.608 419.708 190.216 419.587 189.849C419.467 189.482 419.25 189.154 418.961 188.899C418.622 188.634 418.226 188.452 417.804 188.367C417.41 188.273 417.007 188.224 416.602 188.223C415.445 188.223 414.319 188.594 413.389 189.282C413.32 189.207 413.315 189.172 413.315 189.172C413.315 189.058 413.752 188.844 413.975 188.725C414.198 188.606 414.313 188.551 414.472 188.452C415.111 187.989 415.832 187.651 416.597 187.458C417.14 187.376 417.695 187.416 418.221 187.574C418.748 187.732 419.233 188.005 419.641 188.372C420.483 189.136 421.088 190.126 421.384 191.224C421.555 191.719 421.626 192.242 421.592 192.764Z" fill="black"/>
</g>
<path d="M437.105 293.489C425.724 300.141 421.185 314.653 416.249 326.025C409.699 341.093 403.925 356.486 398.949 372.144C398.055 374.946 397.186 377.773 396.401 380.625C393.918 389.603 392.205 398.789 392.98 408.019C394.241 423.013 410.32 450.979 428.425 438.325C431.678 436.05 433.858 432.577 435.874 429.149C446.799 410.434 454.843 390.159 460.703 369.323C465.788 351.229 474.408 327.55 466.945 309.367C462.183 297.821 450.146 285.872 437.105 293.489Z" fill="#FFD6C7"/>
<path d="M414.64 209.408C414.548 209.4 414.454 209.41 414.366 209.438C414.277 209.466 414.195 209.511 414.124 209.571C414.053 209.631 413.994 209.705 413.952 209.788C413.909 209.87 413.883 209.961 413.876 210.054C413.295 216.676 409.968 222.022 406.427 227.681C404.652 230.418 403.033 233.255 401.581 236.176C398.507 242.675 397.916 249.704 397.335 256.501C397.077 260.467 396.58 264.414 395.845 268.32C393 281.963 385.789 293.737 378.822 305.129C372.243 315.875 365.44 326.989 362.311 339.653C358.661 354.458 359.645 369.7 360.593 384.441C361.437 397.532 362.311 411.065 359.918 424.186C359.884 424.37 359.925 424.559 360.032 424.713C360.138 424.867 360.3 424.972 360.484 425.006C360.527 425.011 360.57 425.011 360.613 425.006C360.778 425.005 360.937 424.947 361.064 424.842C361.191 424.737 361.277 424.591 361.308 424.429C363.732 411.135 362.853 397.512 362.003 384.336C361.06 369.7 360.082 354.572 363.687 339.976C366.756 327.531 373.504 316.506 380.024 305.85C387.061 294.358 394.331 282.499 397.226 268.588C397.965 264.625 398.462 260.619 398.715 256.595C399.281 249.923 399.867 243.027 402.827 236.757C404.257 233.885 405.85 231.096 407.599 228.406C411.075 222.852 414.626 217.113 415.236 210.148C415.247 209.973 415.192 209.799 415.082 209.662C414.971 209.525 414.814 209.435 414.64 209.408Z" fill="white"/>
<path d="M433.128 212.423C433.014 211.787 432.731 210.987 432.085 210.992C431.929 211.009 431.778 211.057 431.642 211.134C431.505 211.211 431.385 211.315 431.291 211.44C429.841 213.059 430.208 215.672 430.258 217.675C430.323 220.077 430.55 222.472 430.938 224.844C429.409 220.964 428.425 216.895 427.462 212.846C426.663 212.89 426.226 213.785 426.027 214.56C425.342 217.282 425.585 220.154 426.106 222.916C426.34 224.133 426.603 225.345 426.906 226.553C427.124 227.507 427.78 229.037 427.571 229.996C427.353 229.996 427.288 229.827 427.229 229.613C426.497 226.9 425.81 224.175 425.168 221.436C424.85 220.069 424.537 218.698 424.239 217.327C424.095 216.661 423.956 216 423.817 215.34C423.693 214.758 423.544 213.889 422.69 214.346C422.015 214.689 421.503 216.105 421.27 216.785C421.048 217.488 420.9 218.213 420.828 218.946C420.391 222.634 420.619 226.37 421.503 229.976C421.874 231.237 422.153 232.524 422.337 233.826C422.377 234.243 422.337 234.551 421.93 234.681C420.581 232.773 419.468 230.71 418.613 228.535C417.739 226.096 417.123 223.567 415.907 221.247C413.483 224.267 413.369 228.515 413.886 232.351C415.375 243.395 411.611 254.21 407.43 264.221C402.832 275.191 398.199 285.922 394.703 297.319C392.77 303.635 391.043 310.006 389.524 316.432C385.601 332.931 382.934 349.718 380.983 366.54C379.259 381.445 377.735 396.409 382.86 410.896C384.324 415.035 386.311 419.153 389.658 421.985C392.275 424.201 395.562 425.463 398.884 426.327C411.755 429.611 422.278 429.701 425.699 415.054C428.257 404.164 428.043 388.485 426.196 377.644C424.1 365.437 424.999 352.972 424.855 340.661C424.713 328.075 424.938 315.489 425.53 302.903C426.027 292.182 425.828 280.025 429.503 269.85C431.738 263.666 433.974 257.478 436.212 251.284C437.617 247.394 439.052 243.4 439.191 239.226C439.35 234.874 437.88 230.492 436.708 226.339C435.387 221.734 433.972 217.143 433.128 212.423Z" fill="#FFD6C7"/>
<path d="M477.437 451.342C474.885 448.634 472.253 445.996 469.457 443.537C468.093 442.236 466.533 441.156 464.834 440.337C463.528 439.827 462.171 439.454 460.787 439.224L444.996 436.055C436.669 434.38 428.828 430.242 421.21 426.58C396.352 414.617 371.513 402.649 346.565 390.864C343.471 389.374 340.328 387.923 336.956 387.347C316.83 383.899 315.603 413.097 324.586 424.37C333.46 435.483 349.336 437.689 362.242 441.127C369.151 442.965 376.085 444.699 383.043 446.329C395.259 449.176 407.564 451.64 419.964 453.543C423.274 454.056 426.585 454.523 429.895 454.944C439.866 456.225 450.826 458.451 459.153 464.433C461.964 466.45 465.371 468.139 468.767 467.493C467.446 465.58 465.708 464.016 464.154 462.302C462.793 460.721 461.626 458.983 460.678 457.125C460.946 456.866 461.214 456.951 461.522 457.16C462.474 457.851 463.374 458.611 464.214 459.435C466.695 461.647 469.555 463.394 472.655 464.592C473.263 464.845 473.895 465.034 474.542 465.153C475.178 465.253 476.529 465.441 477.07 465.054C477.77 464.557 477.149 464.06 476.737 463.737L475.347 462.57C474.383 461.755 473.435 460.935 472.487 460.086C470.596 458.43 468.732 456.744 466.895 455.028C466.751 454.889 466.657 454.775 466.736 454.596C467.58 454.829 468.514 455.992 469.174 456.583C470.014 457.309 470.848 458.044 471.717 458.739C473.673 460.309 475.838 461.72 478.277 462.307C478.972 462.475 479.861 462.505 480.233 461.894C477.394 459.479 474.725 456.871 472.243 454.089C473.952 455.39 475.747 456.573 477.616 457.631C479.18 458.516 481.092 459.902 482.974 459.43C483.113 459.41 483.245 459.36 483.364 459.285C483.482 459.209 483.583 459.11 483.659 458.993C484.404 457.602 478.416 452.38 477.437 451.342Z" fill="#FFD6C7"/>
<g opacity="0.46">
<path opacity="0.46" d="M334.483 402.818C332 402.078 327.884 401.611 326.007 403.747C324.547 405.411 323.767 408.313 323.38 410.434C322.526 415.169 323.067 420.867 325.893 424.921C328.976 429.328 333.808 431.951 338.719 433.864C341.202 434.828 343.794 435.613 346.356 436.413C348.278 437.009 351.536 438.822 352.146 436.075C352.183 435.911 352.209 435.745 352.226 435.578C352.787 429.701 352.38 423.257 350.379 417.693C347.851 410.588 341.644 404.959 334.483 402.818Z" fill="#FF9C85"/>
</g>
<path d="M370.371 211.544L362.997 211.315C364.099 211.994 365.36 212.372 366.653 212.413C367.947 212.453 369.229 212.153 370.371 211.544Z" fill="#FF9C85"/>
<path d="M366.666 211.787C366.07 211.772 365.475 211.722 364.884 211.638C364.278 211.559 363.672 211.44 362.987 211.315C363.406 211.872 363.964 212.309 364.606 212.582C365.894 213.154 367.355 213.2 368.677 212.711C369.335 212.478 369.918 212.075 370.371 211.544C369.68 211.623 369.065 211.708 368.459 211.748C367.863 211.793 367.264 211.806 366.666 211.787Z" fill="#3D0000"/>
<path d="M410.449 183.325C409.324 184.547 408.372 185.918 407.619 187.399C406.328 189.813 404.401 191.224 401.888 191.592C395.929 192.466 387.711 187.274 383.768 183.315C378.912 178.431 375.605 172.385 372.084 165.618C371.622 164.729 370.406 162.374 368.519 163.184C368.192 163.337 367.885 163.529 367.605 163.755C367.461 163.86 367.327 163.959 367.188 164.043L367.684 164.838C367.848 164.734 368.002 164.62 368.151 164.51C368.378 164.332 368.623 164.177 368.881 164.048C369.412 163.82 370.113 163.879 371.24 166.036C374.795 172.902 378.142 178.988 383.088 183.961C385.59 186.39 388.434 188.438 391.53 190.042C393.899 191.269 397.24 192.62 400.468 192.615C400.985 192.618 401.501 192.583 402.013 192.511C404.833 192.094 406.978 190.524 408.438 187.831C409.148 186.426 410.047 185.126 411.11 183.966C413.384 181.601 415.981 181.303 417.511 181.77L417.784 180.866C415.45 180.155 412.56 181.114 410.449 183.325Z" fill="#262320"/>
<path d="M436.564 191.955C432.201 187.837 426.815 184.964 420.967 183.633C417.203 182.788 413.3 182.639 409.546 182.485C408.364 182.441 407.137 182.391 405.94 182.326C394.186 181.651 383.232 176.022 372.451 165.122L372.367 165.037C371.793 164.398 371.122 163.851 370.381 163.417L369.939 164.252C370.587 164.644 371.173 165.132 371.677 165.698L371.761 165.787C376.806 170.885 382.005 174.914 387.21 177.761C392.94 180.965 399.314 182.846 405.866 183.265C407.073 183.335 408.299 183.384 409.486 183.429C413.225 183.578 417.089 183.727 420.768 184.552C426.453 185.847 431.688 188.642 435.929 192.645C441.887 198.239 446.61 207.639 443.655 215.995C443.273 217.074 442.811 218.157 442.364 219.2C441.828 220.447 441.272 221.744 440.84 223.07C439.583 226.95 439.926 230.363 440.293 234C440.423 235.277 440.557 236.603 440.616 237.975C440.698 241.746 440.13 245.504 438.938 249.083L439.837 249.366C441.063 245.685 441.646 241.819 441.56 237.94C441.495 236.549 441.361 235.212 441.232 233.921C440.874 230.403 440.542 227.084 441.729 223.393C442.146 222.111 442.692 220.834 443.218 219.602C443.67 218.549 444.142 217.451 444.534 216.343C447.638 207.55 442.766 197.762 436.564 191.955Z" fill="black"/>
<path d="M428.51 384.987L428.4 384.098L428.266 383.204C428.177 382.612 428.093 382.021 427.973 381.43C427.765 380.248 427.512 379.075 427.233 377.908C426.677 375.577 425.911 373.303 424.944 371.111C425.663 373.379 426.227 375.693 426.633 378.037C426.836 379.204 427.025 380.377 427.164 381.554C427.248 382.14 427.308 382.732 427.373 383.323L427.467 384.202L427.541 385.091C427.735 387.456 427.874 389.821 427.924 392.196C427.973 394.571 428.003 396.945 427.968 399.32V401.104C427.968 401.7 427.934 402.286 427.919 402.877C427.904 403.469 427.854 404.05 427.824 404.641L427.67 406.4C427.601 406.986 427.536 407.572 427.457 408.154C427.378 408.735 427.288 409.321 427.184 409.902C426.965 411.055 426.732 412.213 426.434 413.35C426.275 413.917 426.136 414.493 425.937 415.049L425.669 415.889C425.58 416.172 425.471 416.445 425.371 416.719L425.068 417.553L424.726 418.368C424.612 418.636 424.502 418.915 424.378 419.178L423.991 419.973C422.956 422.112 421.66 424.115 420.132 425.935C421.866 424.269 423.349 422.361 424.537 420.271L424.979 419.481C425.123 419.218 425.247 418.939 425.381 418.671L425.779 417.861L426.136 417.027C426.25 416.749 426.384 416.475 426.484 416.192L426.797 415.343C427.015 414.776 427.179 414.195 427.363 413.624L427.502 413.191L427.621 412.754L427.854 411.88C427.939 411.587 427.998 411.294 428.063 410.995L428.251 410.111C428.376 409.52 428.47 408.924 428.579 408.333C428.688 407.741 428.753 407.135 428.842 406.539C428.932 405.943 428.967 405.342 429.021 404.741C429.076 404.139 429.111 403.538 429.135 402.937C429.19 401.725 429.215 400.532 429.23 399.34C429.23 396.945 429.23 394.551 429.121 392.156C429.011 389.762 428.823 387.367 428.51 384.987Z" fill="#FF9C85"/>
<path d="M328.41 387.571C328.192 387.64 327.973 387.725 327.75 387.804C327.526 387.884 327.318 387.978 327.099 388.072C326.881 388.167 326.677 388.276 326.469 388.385C326.26 388.495 326.051 388.609 325.853 388.738C325.049 389.234 324.322 389.843 323.693 390.546C323.074 391.244 322.561 392.029 322.173 392.877C322.079 393.09 321.979 393.294 321.905 393.512C321.83 393.731 321.741 393.94 321.686 394.163C321.632 394.387 321.557 394.601 321.513 394.819C321.468 395.038 321.418 395.266 321.384 395.49L321.691 394.889C321.786 394.685 321.9 394.496 322.009 394.297C322.119 394.099 322.233 393.92 322.347 393.731C322.461 393.542 322.585 393.363 322.709 393.185C323.195 392.472 323.762 391.819 324.398 391.237C325.666 390.1 327.165 389.253 328.792 388.753C330.453 388.254 332.166 387.952 333.897 387.854C335.65 387.73 337.423 387.744 339.23 387.749C337.491 387.227 335.692 386.931 333.877 386.87C332.028 386.792 330.18 387.029 328.41 387.571Z" fill="#FF9C85"/>
<path d="M467.352 211.643L466.577 210.973C464.189 208.886 461.716 206.73 460.147 203.992C456.671 197.941 458.16 190.578 459.605 183.439C459.878 182.108 460.156 180.727 460.39 179.395C461.362 173.919 461.667 168.346 461.299 162.796C461.105 159.955 460.718 156.979 459.173 154.44C457.266 151.305 453.84 149.119 448.398 147.559C443.922 146.28 439.301 145.579 434.647 145.473C432.433 145.423 430.178 145.507 427.973 145.587C422.591 145.786 417.049 145.989 411.959 144.206C409.847 143.401 407.796 142.444 405.821 141.344C401.809 139.233 397.662 137.052 393.109 137.613C389.553 138.05 386.494 140.097 383.53 142.084C380.282 144.27 377.218 146.332 373.574 146.421L373.598 147.365C377.516 147.266 380.838 145.03 384.056 142.869C386.927 140.937 389.891 138.944 393.223 138.532C397.484 138.01 401.322 140.022 405.384 142.164C407.403 143.297 409.5 144.284 411.661 145.115C416.9 146.958 422.556 146.749 428.023 146.551C430.198 146.466 432.453 146.387 434.637 146.436C439.212 146.539 443.755 147.228 448.154 148.488C453.353 149.979 456.596 152.03 458.384 154.947C459.824 157.312 460.191 160.158 460.37 162.896C460.738 168.368 460.439 173.865 459.481 179.266C459.243 180.587 458.985 181.964 458.697 183.29C457.207 190.588 455.717 198.14 459.342 204.499C460.991 207.371 463.523 209.582 465.976 211.718L466.746 212.389C471.761 216.795 477.586 222.822 478.093 230.378C478.45 235.729 476.037 240.896 473.912 245.457L470.808 252.104L471.662 252.501L474.766 245.854C476.941 241.194 479.409 235.918 479.031 230.314C478.49 222.399 472.506 216.194 467.352 211.643Z" fill="#262320"/>
<path d="M422.938 170.587C421.344 161.818 415.609 135.189 401.883 138.701C401.284 138.814 400.712 139.038 400.195 139.362C399.937 139.526 399.728 139.757 399.589 140.029C399.45 140.302 399.387 140.606 399.406 140.912C399.528 141.411 399.796 141.862 400.175 142.209C407.217 150.128 411.02 160.943 413.33 171.163C414.04 174.313 414.288 192.963 419.373 191.393C420.209 191.06 420.893 190.43 421.295 189.625C423.455 185.968 423.961 181.487 423.738 177.1C423.609 174.914 423.342 172.739 422.938 170.587Z" fill="#011D40"/>
<path d="M425.972 174.536C425.098 163.76 421.846 138.79 407.738 136.987C406.04 136.773 404.337 137.141 402.688 137.573C402.072 137.737 401.451 137.911 400.836 138.07C400.639 138.112 400.456 138.205 400.304 138.338C399.927 138.741 400.304 139.386 400.647 139.804C401.64 140.951 402.752 141.846 403.721 142.949C413.195 153.744 414.839 169.414 417.193 182.962C417.635 185.516 418.186 191.562 421.995 190.777C425.803 189.992 426.196 181.119 426.072 176.489C426.062 175.699 426.012 175.018 425.972 174.536Z" fill="#3C6988"/>
<path d="M421.136 150.535C418.792 144.529 414.735 137.886 407.728 136.992C406.328 136.813 401.809 136.53 402.931 139.113C403.318 139.81 403.862 140.408 404.52 140.857C411.567 146.665 415.341 155.473 418.424 164.073C418.966 165.564 419.561 167.173 420.853 168.107C421.251 168.376 421.704 168.553 422.178 168.626C422.653 168.699 423.138 168.666 423.599 168.53C423.951 168.436 424.272 168.254 424.533 168C424.794 167.746 424.985 167.428 425.088 167.079C425.481 165.718 424.487 163.025 424.219 161.644C423.521 157.857 422.489 154.14 421.136 150.535Z" fill="#517EA0"/>
<path d="M433.037 197.522C433.54 188.682 428.217 181.189 421.147 180.786C414.077 180.383 407.938 187.223 407.435 196.063C406.932 204.903 412.255 212.396 419.325 212.799C426.394 213.201 432.533 206.362 433.037 197.522Z" fill="#011D40"/>
<path d="M435.6 197.668C436.104 188.828 430.781 181.336 423.711 180.933C416.641 180.53 410.502 187.37 409.999 196.21C409.496 205.05 414.819 212.542 421.888 212.945C428.958 213.348 435.097 206.509 435.6 197.668Z" fill="#0E385C"/>
<path d="M421.265 182.744C412.426 188.079 411.716 201.359 417.734 208.975C418.941 210.562 420.561 211.785 422.417 212.513C423.621 212.954 424.907 213.126 426.185 213.015C427.463 212.904 428.7 212.514 429.811 211.872C433.237 210.029 435.963 206.327 437.259 202.889C439.4 197.27 438.749 191.006 434.737 186.43C431.484 182.684 425.987 179.897 421.265 182.744Z" fill="#3C6988"/>
<g opacity="0.43">
<path opacity="0.43" d="M429.642 182.416C424.617 181.646 423.882 188.457 423.713 191.92C423.552 195.314 423.898 198.713 424.741 202.005C425.371 204.459 426.23 208.598 428.53 210.118C432.333 212.662 436.241 205.602 437.274 202.889C439.414 197.27 438.764 191.006 434.752 186.43C433.565 185.069 431.524 182.709 429.642 182.416Z" fill="#517EA0"/>
</g>
<path d="M375.411 191.825L381.226 187.513C379.979 187.703 378.797 188.195 377.783 188.947C376.77 189.698 375.955 190.687 375.411 191.825Z" fill="#35312E"/>
<path d="M380.734 191.468L384.315 188.229C383.899 188.25 383.495 188.367 383.133 188.571C382.562 188.873 382.057 189.284 381.645 189.781C381.234 190.278 380.924 190.851 380.734 191.468Z" fill="#35312E"/>
<path d="M362.5 186.907L365.157 191.537C364.799 189.336 364.526 187.955 362.5 186.907Z" fill="#35312E"/>
<path d="M542.797 134.195H502.077C495.802 134.213 489.789 136.715 485.352 141.155C480.915 145.594 478.414 151.61 478.396 157.888C478.396 159.676 478.396 160.536 477.224 161.992C476.313 163.118 475.196 164.059 473.931 164.764C471.955 165.822 469.78 166.458 467.546 166.632C468.226 166.567 469.398 167.163 470.098 167.308C472.472 167.804 474.86 168.038 477.259 168.331C478.748 168.52 480.317 168.897 481.464 169.891C481.841 170.233 482.188 170.605 482.502 171.004C487.076 176.469 491.739 180.364 499.023 181.318C500.549 181.5 502.085 181.587 503.622 181.581C505.792 181.581 507.962 181.502 510.132 181.581C514.055 181.7 517.988 181.581 521.911 181.581H542.806C545.945 181.627 549.061 181.047 551.974 179.877C554.887 178.707 557.538 176.969 559.773 174.765C562.009 172.56 563.784 169.933 564.996 167.037C566.207 164.14 566.831 161.031 566.831 157.89C566.831 154.75 566.207 151.641 564.996 148.744C563.784 145.847 562.009 143.22 559.773 141.016C557.538 138.812 554.887 137.074 551.974 135.904C549.061 134.734 545.945 134.154 542.806 134.2L542.797 134.195Z" fill="#1A7DF9"/>
<path d="M510.589 159.755C511.316 153.848 507.12 148.47 501.216 147.743C495.312 147.015 489.937 151.214 489.21 157.121C488.483 163.028 492.679 168.406 498.583 169.133C504.487 169.86 509.862 165.661 510.589 159.755Z" fill="white"/>
<path d="M504.098 157.575L498.666 152.746C498.569 152.66 498.45 152.604 498.322 152.585C498.194 152.565 498.064 152.582 497.946 152.634C497.827 152.687 497.727 152.772 497.656 152.88C497.584 152.987 497.545 153.113 497.544 153.243V162.906C497.545 163.035 497.584 163.161 497.656 163.269C497.727 163.377 497.827 163.462 497.946 163.514C498.064 163.566 498.194 163.583 498.322 163.564C498.45 163.544 498.569 163.488 498.666 163.403L504.098 158.573C504.167 158.51 504.222 158.433 504.26 158.347C504.297 158.261 504.316 158.168 504.316 158.074C504.316 157.98 504.297 157.888 504.26 157.802C504.222 157.716 504.167 157.639 504.098 157.575Z" fill="#004BD5"/>
<path d="M543.596 157.277H518.762C517.923 157.277 517.243 157.957 517.243 158.797V159.781C517.243 160.62 517.923 161.301 518.762 161.301H543.596C544.435 161.301 545.116 160.62 545.116 159.781V158.797C545.116 157.957 544.435 157.277 543.596 157.277Z" fill="white"/>
<path d="M557.53 157.277H550.613C549.774 157.277 549.093 157.957 549.093 158.797V159.781C549.093 160.62 549.774 161.301 550.613 161.301H557.53C558.369 161.301 559.05 160.62 559.05 159.781V158.797C559.05 157.957 558.369 157.277 557.53 157.277Z" fill="white"/>
<path d="M523.42 57.6853H466.721C457.987 57.7102 449.617 61.1927 443.441 67.372C437.264 73.5513 433.783 81.9251 433.759 90.6639C433.759 103.243 441.247 114.804 452.435 120.354C454.734 121.496 457.177 122.341 459.571 123.295C460.024 123.448 460.453 123.663 460.847 123.936C462.833 125.426 461.77 128.968 460.996 130.812C459.949 133.287 458.359 135.494 456.343 137.27L464.358 130.275C465.847 128.998 467.302 127.706 468.866 126.544C470.081 125.63 471.372 124.822 472.725 124.129C474.572 123.205 477.259 123.662 479.324 123.662H523.42C532.093 123.556 540.374 120.034 546.47 113.861C552.565 107.687 555.983 99.359 555.983 90.6813C555.983 82.0036 552.565 73.6755 546.47 67.502C540.374 61.3284 532.093 57.8067 523.42 57.7002V57.6853Z" fill="#1A7DF9"/>
<path d="M539.793 73.3666L456.167 73.9945C455.317 74.0009 454.633 74.6956 454.639 75.5462L454.647 76.5398C454.653 77.3904 455.348 78.0747 456.198 78.0683L539.824 77.4404C540.674 77.434 541.358 76.7393 541.351 75.8888L541.344 74.8952C541.338 74.0446 540.643 73.3602 539.793 73.3666Z" fill="white"/>
<path d="M526.615 84.0721L456.247 84.6005C455.397 84.6069 454.713 85.3016 454.719 86.1521L454.727 87.1458C454.733 87.9963 455.427 88.6807 456.278 88.6743L526.645 88.1459C527.495 88.1395 528.179 87.4448 528.173 86.5943L528.166 85.6007C528.159 84.7501 527.465 84.0657 526.615 84.0721Z" fill="white"/>
<path d="M533.83 94.6196L456.326 95.2016C455.476 95.208 454.792 95.9027 454.799 96.7532L454.806 97.7468C454.812 98.5974 455.507 99.2817 456.357 99.2754L533.86 98.6934C534.71 98.687 535.394 97.9923 535.388 97.1418L535.381 96.1482C535.374 95.2976 534.68 94.6132 533.83 94.6196Z" fill="white"/>
<path d="M521.585 105.313L456.406 105.803C455.556 105.809 454.872 106.504 454.878 107.355L454.886 108.348C454.892 109.199 455.587 109.883 456.437 109.877L521.616 109.387C522.466 109.381 523.15 108.686 523.143 107.836L523.136 106.842C523.13 105.991 522.435 105.307 521.585 105.313Z" fill="white"/>
<path d="M170.772 75.6203L127.997 74.2938C114.317 73.8715 102.717 86.7142 102.22 102.816C101.723 118.918 112.504 132.451 126.18 132.878L128.34 132.943L148.128 133.559L159.45 133.907C161.01 133.956 163.046 133.614 164.416 134.478C165.43 135.134 166.381 135.882 167.256 136.714C168.409 137.782 169.491 138.964 170.559 140.132L176.413 146.531C174.903 144.845 173.765 142.859 173.076 140.703C172.545 139.044 171.845 135.874 173.379 134.597C173.682 134.369 174.017 134.187 174.372 134.056C176.205 133.276 178.067 132.565 179.835 131.611C188.43 126.946 194.399 116.851 194.732 105.683C195.234 89.5709 184.448 76.0426 170.772 75.6203Z" fill="#1A7DF9"/>
<path d="M175.842 87.9567L124.841 86.8166C123.991 86.7976 123.287 87.4716 123.268 88.322L123.253 88.9627C123.234 89.8131 123.908 90.5179 124.758 90.5369L175.758 91.677C176.608 91.696 177.313 91.022 177.332 90.1716L177.346 89.5309C177.365 88.6805 176.691 87.9757 175.842 87.9567Z" fill="white"/>
<path d="M167.357 97.4527L124.627 96.4975C123.777 96.4785 123.073 97.1525 123.054 98.0029L123.039 98.6436C123.02 99.494 123.694 100.199 124.544 100.218L167.273 101.173C168.123 101.192 168.828 100.518 168.847 99.6676L168.861 99.0269C168.88 98.1765 168.206 97.4717 167.357 97.4527Z" fill="white"/>
<path d="M171.588 107.238L124.41 106.183C123.56 106.164 122.855 106.838 122.836 107.688L122.822 108.329C122.803 109.18 123.477 109.884 124.327 109.903L171.504 110.958C172.354 110.977 173.059 110.303 173.078 109.453L173.092 108.812C173.111 107.962 172.437 107.257 171.588 107.238Z" fill="white"/>
<path d="M163.688 116.741L124.196 115.859C123.346 115.84 122.641 116.514 122.622 117.364L122.608 118.005C122.589 118.855 123.263 119.56 124.113 119.579L163.605 120.462C164.455 120.481 165.16 119.807 165.179 118.956L165.193 118.316C165.212 117.465 164.538 116.76 163.688 116.741Z" fill="white"/>
<path d="M135.039 219.036L91.1861 219.081C77.1628 219.081 65.7068 231.004 65.7217 245.596C65.7366 260.187 77.2224 272.076 91.2407 272.061H93.4555H113.741H125.346C126.944 272.061 129.02 271.688 130.455 272.434C131.504 272.99 132.501 273.639 133.435 274.371C134.651 275.3 135.793 276.358 136.911 277.352L143.113 282.961C141.542 281.528 140.311 279.763 139.508 277.794C138.907 276.304 138.083 273.467 139.617 272.27C139.922 272.057 140.257 271.889 140.61 271.773C142.458 271.018 144.344 270.327 146.127 269.408C150.465 267.115 154.097 263.684 156.634 259.483C159.171 255.282 160.517 250.469 160.528 245.561C160.543 230.925 149.057 219.021 135.039 219.036Z" fill="#1A7DF9"/>
<path d="M90.6995 251.642C93.8534 251.642 96.4101 249.084 96.4101 245.928C96.4101 242.773 93.8534 240.215 90.6995 240.215C87.5456 240.215 84.9889 242.773 84.9889 245.928C84.9889 249.084 87.5456 251.642 90.6995 251.642Z" fill="white"/>
<path d="M114.446 251.642C117.6 251.642 120.156 249.084 120.156 245.928C120.156 242.773 117.6 240.215 114.446 240.215C111.292 240.215 108.735 242.773 108.735 245.928C108.735 249.084 111.292 251.642 114.446 251.642Z" fill="white"/>
<path d="M138.192 251.642C141.346 251.642 143.903 249.084 143.903 245.928C143.903 242.773 141.346 240.215 138.192 240.215C135.038 240.215 132.481 242.773 132.481 245.928C132.481 249.084 135.038 251.642 138.192 251.642Z" fill="white"/>
<defs>
<filter id="filter0_f" x="42.4805" y="8.10449" width="490.515" height="489.81" filterUnits="userSpaceOnUse" color-interpolation-filters="sRGB">
<feFlood flood-opacity="0" result="BackgroundImageFix"/>
<feBlend mode="normal" in="SourceGraphic" in2="BackgroundImageFix" result="shape"/>
<feGaussianBlur stdDeviation="5" result="effect1_foregroundBlur"/>
</filter>
<linearGradient id="paint0_linear" x1="532.465" y1="449.512" x2="81.8134" y2="34.5349" gradientUnits="userSpaceOnUse">
<stop stop-color="#6DF5FF" stop-opacity="0.8"/>
<stop offset="1" stop-color="#F29FFF" stop-opacity="0.7"/>
</linearGradient>
</defs>
</svg>
