<?xml version="1.0" encoding="UTF-8"?>
<svg width="735px" height="508px" viewBox="0 0 735 508" version="1.1" xmlns="http://www.w3.org/2000/svg" xmlns:xlink="http://www.w3.org/1999/xlink">
    <!-- Generator: Sketch 53.2 (72643) - https://sketchapp.com -->
    <title>running lady</title>
    <desc>Created with Sketch.</desc>
    <g id="Page-1" stroke="none" stroke-width="1" fill="none" fill-rule="evenodd">
        <g id="Personal-Online" transform="translate(-80.000000, -306.000000)" fill-rule="nonzero">
            <g id="running-lady-4" transform="translate(80.000000, 306.000000)">
                <g id="running-lady-3">
                    <g id="running-lady-2">
                        <g id="running-lady">
                            <path d="M426.932788,81.804723 C379.906449,80.133515 335.118074,64.9545867 292.378747,48.3805631 C249.639419,31.8065395 207.248865,13.3651226 161.348774,4.56584923 C131.826521,-1.09445958 98.0608538,-1.89373297 74.2788374,13.9318801 C51.3832879,29.1907357 43.986376,55.4577657 40.0118074,79.8574024 C37.0181653,98.2116258 35.2597639,117.524977 43.4559491,134.709355 C49.1525886,146.640327 59.2524977,156.667575 66.2425068,168.097184 C90.5622162,207.857402 73.3705722,256.889192 47.0236149,295.71208 C34.671208,313.928247 20.3206176,331.316076 10.7801998,350.687557 C1.23978202,370.059037 -3.17075386,392.286104 5.17801998,412.064487 C13.4468665,431.683015 33.1598547,446.389646 54.5149864,456.743869 C97.8864668,477.772025 148.974569,483.79564 198.82743,487.203451 C309.148955,494.752952 420.051771,491.483197 530.663942,488.213442 C571.601272,487 612.712988,485.772025 652.981835,479.443233 C675.346957,475.926431 698.431426,470.346049 714.671208,456.881926 C735.277929,439.784741 740.386013,410.829246 726.573115,389.394187 C703.408719,353.434151 639.379655,344.504087 623.168937,305.906449 C614.260672,284.667575 623.408719,261.001817 636.364214,241.303361 C664.149864,199.043597 710.718438,161.964578 713.167121,113.652134 C714.852861,80.4750227 692.46594,47.2470481 657.850136,31.5449591 C621.570391,15.0871935 571.252498,17.1580381 544.498638,44.3987284 C516.901907,72.4168937 468.458674,83.2070845 426.932788,81.804723 Z" id="Shape" fill="#5090F8" opacity="0.1"></path>
                            <ellipse id="Oval" fill="#5090F8" cx="85.4396004" cy="497.36149" rx="53.195277" ry="10.2306994"></ellipse>
                            <ellipse id="Oval" fill="#3F3D56" cx="84.5458674" cy="493.016349" rx="6.19073569" ry="8.10899183"></ellipse>
                            <ellipse id="Oval" fill="#3F3D56" cx="84.5458674" cy="483.105359" rx="6.19073569" ry="8.10899183"></ellipse>
                            <ellipse id="Oval" fill="#3F3D56" cx="84.5458674" cy="473.194369" rx="6.19073569" ry="8.10899183"></ellipse>
                            <ellipse id="Oval" fill="#3F3D56" cx="84.5458674" cy="463.290645" rx="6.19073569" ry="8.10899183"></ellipse>
                            <ellipse id="Oval" fill="#3F3D56" cx="84.5458674" cy="453.379655" rx="6.19073569" ry="8.10899183"></ellipse>
                            <ellipse id="Oval" fill="#3F3D56" cx="84.5458674" cy="443.468665" rx="6.19073569" ry="8.10899183"></ellipse>
                            <ellipse id="Oval" fill="#3F3D56" cx="84.5458674" cy="433.557675" rx="6.19073569" ry="8.10899183"></ellipse>
                            <path d="M107.732062,365.742961 C108.580496,364.667162 109.352591,363.533299 110.042688,362.349682 L93.7665758,359.675749 L111.365123,359.80654 C114.779956,352.382911 114.984967,343.880214 111.93188,336.300636 L88.3242507,348.551317 L110.122616,332.565849 C104.557075,322.967228 94.1006257,317.276437 83.0182468,317.814636 C71.9358679,318.352836 62.0800536,325.030062 57.4707947,335.122808 C52.8615358,345.215553 54.269301,357.036747 61.119891,365.764759 C59.8014685,367.443311 58.6663428,369.25805 57.7338783,371.17802 L78.8637602,382.149864 L56.3387829,374.593097 C53.1194455,384.09026 54.9181925,394.571105 61.119891,402.451408 C51.5519718,414.613497 52.9389975,432.086927 64.305838,442.587233 C75.6726784,453.087538 93.2010727,453.087538 104.567913,442.587233 C115.934754,432.086927 117.321779,414.613497 107.75386,402.451408 C116.221151,391.688215 116.221151,376.527952 107.75386,365.764759 L107.732062,365.742961 Z" id="Shape" fill="#5090F8"></path>
                            <path d="M54.7765668,384.075386 C54.7677845,390.729334 57.0054474,397.191418 61.1271571,402.415077 C51.5592379,414.577166 52.9462637,432.050596 64.3131041,442.550902 C75.6799445,453.051208 93.2083389,453.051208 104.575179,442.550902 C115.94202,432.050596 117.329045,414.577166 107.761126,402.415077 C111.713896,397.379655 54.7765668,380.754768 54.7765668,384.075386 Z" id="Shape" fill="#000000" opacity="0.1"></path>
                            <path d="M343.161671,373.902816 C343.612171,379.715713 345.850136,385.732062 350.558583,389.161671 C355.26703,392.591281 362.758401,392.525886 366.355132,387.919164 C367.56293,386.189666 368.451303,384.257884 368.978202,382.215259 C372.008174,372.63851 374.158946,362.160763 370.838329,352.678474 C363.346957,352.191644 354.663942,348.667575 349.039964,354.858311 C344.498638,359.900999 342.63851,367.181653 343.161671,373.902816 Z" id="Shape" fill="#3F3D56"></path>
                            <path d="M377.93733,315.316076 C376.941871,323.766576 375.248865,332.180745 375.423252,340.689373 C375.488647,343.97366 375.837421,347.228883 375.844687,350.527702 C375.857353,359.093347 373.601006,367.509521 369.305177,374.920073 C368.852797,375.791277 368.247326,376.57396 367.517711,377.230699 C365.79564,378.625795 363.201635,378.509537 361.268847,377.441417 C359.380504,376.2667 357.846161,374.601775 356.829246,372.623978 C351.415985,363.352407 351.263397,352.082652 349.119891,341.568574 C347.477748,333.524977 344.600363,325.728429 343.561308,317.590372 C342.885559,312.351499 342.987284,307.010899 341.911898,301.837421 C341.584923,300.275204 340.669391,297.928247 340.066303,295.624886 C339.514078,293.568574 339.208901,291.548592 339.775658,290.160763 C340.930972,287.319709 344.716621,288.42416 347.179837,288.598547 C355.85422,289.241622 364.565103,289.21976 373.236149,288.533152 C374.093551,288.467757 375.067212,288.431426 375.6703,289.04178 C375.933376,289.350013 376.131133,289.708448 376.251589,290.095368 C376.94199,291.984487 377.469497,293.929211 377.828338,295.908265 C379.027248,302.237057 378.693006,308.871026 377.93733,315.316076 Z" id="Shape" fill="#FABDBD"></path>
                            <g id="Group" opacity="0.1" transform="translate(338.838329, 288.169846)" fill="#000000">
                                <path d="M35.7565849,0.363306085 C35.309752,0.316076208 34.8591853,0.316076208 34.4123524,0.363306085 C30.2561308,0.697547684 26.0926431,0.864668483 21.9364214,0.886466848 C26.5431426,0.896155011 31.1498638,0.72176809 35.7565849,0.363306085 Z" id="Shape"></path>
                                <path d="M23.8982743,89.2715713 C22.0099317,88.0968547 20.4755889,86.4319295 19.4586739,84.4541326 C14.0454133,75.1825613 13.8928247,63.9128065 11.7493188,53.3987284 C10.1071753,45.3551317 7.2297911,37.5585831 6.19073569,29.4205268 C5.51498638,24.181653 5.61671208,18.8410536 4.54132607,13.6675749 C4.21435059,12.1053588 3.29881926,9.75840145 2.69573115,7.45504087 C2.1435059,5.39872843 1.83832879,3.37874659 2.40508629,1.99091735 C2.89736916,0.826883017 4.04788788,0.0790458517 5.31153497,0.101725704 C3.47320618,-0.0217983651 1.67847411,0.196185286 0.951861944,1.99091735 C0.38510445,3.37874659 0.690281562,5.39872843 1.24250681,7.45504087 C1.84559491,9.75840145 2.76112625,12.1053588 3.08810173,13.6675749 C4.16348774,18.8410536 4.06176203,24.181653 4.73751135,29.4205268 C5.77656676,37.5658492 8.65395095,45.3623978 10.2960945,53.3987284 C12.4396004,63.9128065 12.5921889,75.1970936 18.0054496,84.4541326 C19.0223646,86.4319295 20.5567074,88.0968547 22.44505,89.2715713 C23.6049492,89.9133236 24.9343625,90.1822507 26.2524977,90.0417802 C25.4267034,89.9336115 24.6283182,89.6724114 23.8982743,89.2715713 Z" id="Shape"></path>
                            </g>
                            <path d="M405.410536,359.879201 C401.050863,368.598547 401.777475,380.950954 401.777475,380.950954 C402.504087,410.015441 390.878292,471.050863 390.878292,471.050863 L380.705722,471.050863 C380.705722,471.050863 379.252498,403.475931 380.705722,397.663034 C382.158946,391.850136 379.97911,371.504995 377.799273,343.167121 C376.178928,322.095368 380.589464,303 382.95822,294.622162 C383.772025,291.715713 384.338783,290.124432 384.338783,290.124432 C384.338783,290.124432 401.050863,265.419619 410.496821,277.045413 C412.676658,279.748411 413.831971,285.205268 414.231608,292.093551 C415.524977,314.82198 408.752952,353.187103 405.410536,359.879201 Z" id="Shape" fill="#FABDBD"></path>
                            <path d="M414.231608,292.093551 C413.831971,285.205268 412.69119,279.741144 410.496821,277.045413 C408.389646,274.458674 405.919164,273.673933 403.36149,274.015441 C405.343815,274.344403 407.120714,275.430865 408.316985,277.045413 C410.496821,279.748411 411.652134,285.205268 412.051771,292.093551 C413.345141,314.82198 406.573115,353.187103 403.230699,359.879201 C398.871026,368.598547 399.597639,380.950954 399.597639,380.950954 C400.324251,410.015441 388.698456,471.050863 388.698456,471.050863 L390.878292,471.050863 C390.878292,471.050863 402.504087,410.015441 401.777475,380.950954 C401.777475,380.950954 401.050863,368.598547 405.410536,359.879201 C408.752952,353.187103 415.524977,314.82198 414.231608,292.093551 Z" id="Shape" fill="#000000" opacity="0.1"></path>
                            <path d="M375.415985,468.398728 C374.604092,469.03581 373.902086,469.801634 373.337875,470.665758 C372.037239,473.121708 373.882834,476.057221 375.859219,478.011807 C377.835604,479.966394 380.218892,482.059037 380.218892,484.841962 C380.218892,487.079927 378.525886,488.998183 376.629428,490.189827 C375.612171,490.829246 374.333333,491.643052 374.544051,492.849228 C374.617907,493.154271 374.748552,493.442677 374.929155,493.699364 C376.556767,496.191644 379.441417,497.652134 382.362398,498.20436 C385.283379,498.756585 388.298819,498.516803 391.270663,498.277021 C391.715762,498.292875 392.150856,498.142664 392.491371,497.855586 C392.706688,497.565889 392.8215,497.213798 392.818347,496.852861 C392.963669,495.312443 392.86921,493.684832 393.544959,492.297003 C394.489555,490.400545 396.662125,489.434151 397.904632,487.733878 C399.648501,485.408719 399.408719,482.175295 398.747502,479.348774 C397.294278,473.194369 394.060854,466.175295 389.207084,461.910082 C383.583106,457.012716 379.17257,464.860127 375.415985,468.398728 Z" id="Shape" fill="#3F3D56"></path>
                            <path d="M397.432334,102.149864 C401.48683,96.0899183 400.433243,87.6176203 396.291553,81.5867393 C392.149864,75.5558583 385.494096,71.7629428 378.627611,69.3142598 C369.370572,66.0154405 359.161671,64.8891916 349.650318,67.3669391 C342.079019,69.3360581 335.277929,73.4559491 328.142598,76.6385104 C315.519054,82.2708479 301.793566,85.0020411 287.975477,84.6312443 C272.636694,84.2025431 255.830154,80.2715713 242.961853,88.6566757 C219.405086,103.980926 229.882834,145.688465 207.597639,162.771117 C201.588556,167.377838 194.024523,169.390554 187.339691,172.943688 C180.654859,176.496821 174.318801,182.680291 174.478656,190.251589 C174.551317,193.88465 176.149864,197.35059 178.111717,200.42416 C186.467757,213.6703 202.089918,221.866485 217.733878,221.713896 C233.377838,221.561308 248.64396,213.241599 257.661217,200.438692 C259.920981,197.234332 261.911898,193.666667 265.188919,191.530427 C271.728429,187.243415 280.346049,190.244323 288.149864,190.883742 C305.523161,192.300636 322.903724,179.257947 326.362398,162.146231 C327.815622,154.843778 327.561308,146.117166 333.4396,141.532243 C338.184378,137.833787 344.861944,138.625795 350.878292,137.993642 C361.879201,136.852861 370.562216,130.000908 376.534968,121.049046 C379.274296,116.943688 379.594005,112.039055 383.328792,108.805631 C387.354223,105.252498 393.58129,107.875568 397.432334,102.149864 Z" id="Shape" fill="#3F3D56"></path>
                            <g id="Group" opacity="0.1" transform="translate(213.861035, 65.826521)" fill="#000000">
                                <path d="M59.582198,20.2070845 C65.9538861,20.3819042 72.3265119,19.8948866 78.5976385,18.7538601 C76.8683015,18.804723 75.1244323,18.804723 73.3878292,18.7538601 C61.3478656,18.4196185 48.4069028,15.9346049 37.1734787,18.928247 C44.5849228,19.0009083 52.2506812,20.0036331 59.582198,20.2070845 Z" id="Shape"></path>
                                <path d="M36.7811081,127.149864 C33.5040872,129.286104 31.5131698,132.853769 29.253406,136.058129 C22.3076191,145.807448 12.1563606,152.805566 0.574023615,155.829246 C1.42415985,155.865577 2.27429609,155.887375 3.13169846,155.880109 C18.7901907,155.72752 34.0417802,147.407811 43.0590372,134.604905 C45.3188011,131.400545 47.3097184,127.832879 50.5867393,125.696639 L51.1534968,125.347866 C46.0236149,124.643052 40.9881926,124.396004 36.7811081,127.149864 Z" id="Shape"></path>
                                <path d="M181.696639,15.7384196 C177.562216,9.73660309 170.899183,5.91462307 164.032698,3.46594005 C154.775658,0.167120799 144.566757,-0.959128065 135.055404,1.51861944 C134.837421,1.56948229 134.626703,1.63487738 134.415985,1.69300636 C139.815148,1.99410333 145.141549,3.08092398 150.227066,4.9191644 C157.093551,7.36784741 163.756585,11.1898274 167.891008,17.191644 C172.025431,23.1934605 173.086285,31.7238874 169.031789,37.7547684 C165.180745,43.5022707 158.953678,40.8792007 154.877384,44.417802 C151.142598,47.6512262 150.822888,52.5558583 148.08356,56.6612171 C142.946412,64.3415077 135.796549,70.4668483 126.89555,72.7920073 C129.954587,72.4287012 133.180745,72.4722979 136.232516,72.1525886 C147.233424,71.0118074 155.91644,64.1598547 161.889192,55.2079927 C164.62852,51.102634 164.948229,46.1980018 168.683015,42.9645777 C172.75931,39.4259764 178.986376,42.0490463 182.837421,36.3015441 C186.899183,30.2415985 185.845595,21.7402361 181.696639,15.7384196 Z" id="Shape"></path>
                                <path d="M122.434151,73.6058129 C116.454133,74.2306994 109.776567,73.4459582 104.995459,77.1444142 C99.1171662,81.729337 99.400545,90.4559491 97.9182561,97.7584015 C95.3678474,110.524977 85.0063579,121.053588 72.7048138,124.970027 L73.5694823,125.049955 C90.9427793,126.466848 108.323342,113.42416 111.782016,96.3124432 C113.235241,89.0099909 112.980926,80.2833787 118.859219,75.6984559 C120.209316,74.6887365 121.741332,73.9486321 123.37148,73.5186194 C123.044505,73.5258856 122.746594,73.5767484 122.434151,73.6058129 Z" id="Shape"></path>
                            </g>
                            <path d="M511.859219,76.137148 C511.859219,76.137148 494.420527,111.014532 488.607629,124.093551 C482.794732,137.17257 429.752044,156.791099 422.485922,157.517711 C420.536855,157.784901 418.721551,158.659501 417.297911,160.017257 C413.192552,163.650318 410.860127,169.870118 410.860127,169.870118 C410.860127,169.870118 413.766576,189.488647 410.133515,222.186194 C410.060854,222.818347 409.995459,223.4505 409.93733,224.060854 C406.769301,255.174387 413.40327,262.51317 413.40327,262.51317 C413.40327,262.51317 342.921889,289.39782 345.101726,254.520436 C345.784741,243.541326 345.683015,235.519528 345.007266,228.812897 C344.267668,221.947228 342.871017,215.168362 340.836512,208.569482 C339.114441,202.545867 337.058129,195.940963 334.929155,186.945504 C333.904357,182.457277 332.554133,178.049621 330.889192,173.757493 C330.838329,173.626703 330.787466,173.495913 330.743869,173.372389 C327.110808,164.355132 323.477748,161.441417 321.399637,160.496821 C319.43745,159.643302 317.567612,158.591518 315.819255,157.357856 C309.105359,152.511353 294.696639,141.648501 281.864668,128.81653 C264.425976,111.377838 246.987284,69.9609446 246.987284,69.9609446 C246.987284,69.9609446 241.900999,45.982743 253.526794,26.3642144 C265.152589,6.74568574 260.066303,64.8746594 260.066303,64.8746594 C260.066303,64.8746594 281.138056,93.2125341 286.224342,106.291553 C288.840145,113.019982 292.996367,116.464124 296.396912,118.251589 C302.015025,121.176119 307.394057,124.538621 312.484105,128.307902 C315.924166,130.907632 319.539131,133.267435 323.303361,135.370572 C331.426885,139.730245 341.156222,144.64941 349.265213,145.942779 C350.531088,146.151953 351.811448,146.261282 353.09446,146.269755 C354.328202,146.309089 355.509961,145.771926 356.291553,144.81653 C358.47139,142.251589 358.420527,136.729337 357.919164,132.188011 C357.651342,129.835388 357.253519,127.499391 356.72752,125.190736 C356.72752,125.190736 380.342416,110.295186 379.615804,128.46049 C379.503126,130.467768 379.689232,132.480651 380.168029,134.433243 C380.955101,138.082049 383.645202,141.024781 387.208901,142.135332 C390.044399,142.967003 393.044731,143.064514 395.928247,142.41871 C396.827163,142.265138 397.695608,141.968297 398.500454,141.53951 C400.680291,140.086285 422.478656,133.546776 429.018165,132.820163 C435.557675,132.093551 468.255223,116.108084 468.255223,116.108084 L503.859219,66.6984559 C503.859219,66.6984559 503.132607,37.6339691 517.66485,26.0081744 C532.197094,14.3823797 511.859219,76.137148 511.859219,76.137148 Z" id="Shape" fill="#FABDBD"></path>
                            <g id="Group" opacity="0.1" transform="translate(245.831971, 27.316076)" fill="#000000">
                                <path d="M164.105359,192.385104 C163.470655,198.224086 163.191606,204.096262 163.269755,209.969119 C163.342416,206.132607 163.59673,201.751135 164.105359,196.744777 C164.163488,196.134423 164.228883,195.502271 164.301544,194.870118 C165.572652,183.680043 166.179227,172.424451 166.118074,161.162579 C166.006013,170.969507 165.399734,180.764555 164.301544,190.510445 C164.257947,191.142598 164.163488,191.77475 164.105359,192.385104 Z" id="Shape"></path>
                                <path d="M111.651226,97.4096276 C111.164396,97.6930064 110.924614,97.8673933 110.924614,97.8673933 C111.630832,100.975678 112.097236,104.133621 112.319709,107.313351 C112.466333,103.997518 112.242115,100.675681 111.651226,97.4096276 L111.651226,97.4096276 Z" id="Shape"></path>
                                <path d="M14.5758401,33.613079 C14.9318801,28.5267938 15.462307,19.4078111 15.3605813,11.2988193 C15.2370572,22.1398728 14.270663,33.1989101 14.270663,33.1989101 L14.5758401,33.613079 Z" id="Shape"></path>
                                <path d="M99.3206176,226.354223 C99.3206176,226.637602 99.3206176,226.920981 99.2697548,227.20436 C97.0899183,262.081744 167.571299,235.197094 167.571299,235.197094 C166.747139,234.083816 166.12491,232.83444 165.73297,231.505904 C155.117166,235.284287 101.769301,252.853769 99.3206176,226.354223 Z" id="Shape"></path>
                                <path d="M266.027248,44.4613987 C266.027248,44.4613987 248.588556,79.3387829 242.775658,92.417802 C236.962761,105.496821 183.920073,125.11535 176.653951,125.841962 C174.704884,126.109152 172.88958,126.983752 171.46594,128.341508 C167.360581,131.974569 165.028156,138.194369 165.028156,138.194369 C165.028156,138.194369 165.202543,139.378747 165.413261,141.631244 C166.227066,139.763851 168.319709,135.476839 171.46594,132.701181 C172.88958,131.343425 174.704884,130.468825 176.653951,130.201635 C183.920073,129.475023 236.962761,109.856494 242.775658,96.777475 C248.588556,83.6984559 266.027248,48.8210718 266.027248,48.8210718 C266.027248,48.8210718 278.31426,11.5095368 276.962761,0.348773842 C275.843778,14.6485014 266.027248,44.4613987 266.027248,44.4613987 Z" id="Shape"></path>
                                <path d="M99.1752952,197.137148 C98.4356967,190.271479 97.0390458,183.492612 95.0045413,176.893733 C93.2824705,170.870118 91.226158,164.265213 89.0971844,155.269755 C88.0723859,150.781528 86.7221619,146.373872 85.0572207,142.081744 C85.0063579,141.950954 84.955495,141.820163 84.9118983,141.696639 C81.2788374,132.679382 77.6457766,129.765668 75.5676658,128.821072 C73.6054791,127.967552 71.7356411,126.915768 69.9872843,125.682107 C63.2733878,120.835604 48.8646685,109.972752 36.0326975,97.1407811 C18.5940054,79.702089 1.15531335,38.2851953 1.15531335,38.2851953 C0.510797847,34.7887739 0.151154922,31.2458051 0.0799273388,27.6911898 C-0.097618706,32.6998675 0.26290786,37.7131356 1.15531335,42.6448683 C1.15531335,42.6448683 18.5940054,84.061762 36.0326975,101.500454 C48.8646685,114.332425 63.2733878,125.195277 69.9872843,130.04178 C71.7494383,131.278038 73.6340017,132.329887 75.6112625,133.180745 C77.6821072,134.125341 81.3079019,137.039055 84.955495,146.056312 C84.9990917,146.179837 85.0499546,146.310627 85.1008174,146.441417 C86.7583556,150.734125 88.1012909,155.14177 89.1189827,159.629428 C91.2479564,168.624886 93.3042688,175.229791 95.0263397,181.253406 C97.0608441,187.852285 98.4574951,194.631152 99.1970936,201.496821 C99.5022707,204.53406 99.6839237,207.840145 99.7347866,211.5604 C99.8228382,206.74592 99.6360373,201.930339 99.1752952,197.137148 Z" id="Shape"></path>
                            </g>
                            <path d="M416.970936,192.889192 C415.861671,194.723154 414.890181,196.636989 414.064487,198.614896 C412.967302,201.666667 412.960036,204.987284 412.756585,208.220708 C412.466759,212.758389 411.77621,217.261548 410.693006,221.677566 C410.517852,222.490911 410.274797,223.288134 409.966394,224.060854 C409.749313,224.581118 409.463382,225.069889 409.116258,225.514078 C408.728858,225.987885 408.273416,226.4017 407.764759,226.742053 C406.985032,227.262053 406.160733,227.711892 405.301544,228.086285 C395.187103,232.809264 384.15713,236.980018 373.119891,235.352407 C368.453925,234.536638 363.938727,233.01769 359.728429,230.847411 C355.732062,228.907357 351.212534,226.603996 347.070845,228.217075 L347.070845,228.217075 C346.435208,228.539695 345.749946,228.753379 345.043597,228.849228 C344.907058,228.851581 344.770656,228.839402 344.636694,228.812897 C343.270663,228.551317 343.270663,223.944596 342.95822,222.585831 C341.766576,217.368756 341.584923,213.139873 340.872843,208.605813 C340.494387,206.09843 339.908668,203.626746 339.121708,201.216167 C336.215259,192.42416 335.336058,183.050863 335.336058,173.837421 C335.336058,173.379655 332.066303,173.837421 330.976385,173.793824 C330.700272,173.793824 330.547684,173.750227 330.613079,173.655767 C330.67614,173.565421 330.749271,173.482539 330.831063,173.408719 C331.211571,173.099815 331.655742,172.87897 332.131698,172.762035 L332.989101,172.50772 C337.479564,171.236149 342.435059,170.705722 345.792007,167.544959 C349.279746,164.28247 350.15168,159.072661 349.999092,154.306085 C349.955495,152.772934 349.207084,149.052679 349.330609,145.964578 C350.596483,146.173752 351.876843,146.28308 353.159855,146.291553 C354.393597,146.330887 355.575356,145.793724 356.356948,144.838329 C357.569209,147.18526 358.618023,149.613071 359.495913,152.10445 C360.731153,155.141689 361.675749,158.338783 363.485014,161.085377 C366.391462,165.561308 371.75386,168.504087 377.087193,168.053588 C382.420527,167.603088 387.383288,163.504995 388.33515,158.244323 C389.170754,153.630336 387.230699,146.989101 387.274296,142.19346 C390.109794,143.025132 393.110126,143.122643 395.993642,142.476839 C396.11617,142.772956 396.220512,143.076275 396.306085,143.385104 C397.940963,148.99455 400.120799,155.432334 405.606721,157.423252 C409.152589,158.702089 413.345141,157.742961 416.622162,159.603088 C416.873987,159.747864 417.116651,159.908022 417.348774,160.082652 C418.105306,160.645148 418.757066,161.336259 419.274296,162.124432 C420.620521,164.346827 421.419914,166.857069 421.606721,169.448683 C422.445753,177.550214 420.830638,185.716921 416.970936,192.889192 L416.970936,192.889192 Z" id="Shape" fill="#3764AD"></path>
                            <path d="M380.168029,134.425976 C372.816835,137.259427 364.556035,136.425793 357.919164,132.180745 C357.651342,129.828122 357.253519,127.492125 356.72752,125.18347 C356.72752,125.18347 380.342416,110.28792 379.615804,128.453224 C379.503126,130.460502 379.689232,132.473385 380.168029,134.425976 L380.168029,134.425976 Z" id="Shape" fill="#000000" opacity="0.1"></path>
                            <circle id="Oval" fill="#FABDBD" cx="371.252498" cy="109.924614" r="24.7048138"></circle>
                            <path d="M350.006358,114.015441 C349.279746,109.481381 348.160763,103.770209 351.953678,101.176203 C353.306454,100.355948 354.870591,99.9516477 356.451408,100.013624 C364.306085,99.9336966 371.811989,105.405086 379.514078,103.80654 C384.520969,102.757315 388.446941,98.8690162 389.544393,93.8724742 C390.641845,88.8759323 388.706699,83.7002846 384.600363,80.6494096 C381.570391,78.3969119 377.741144,77.5831063 374.035422,76.8201635 C364.291553,74.8147139 354.118983,72.8165304 344.498638,75.3669391 C334.878292,77.9173479 326.086285,86.5422343 326.856494,96.4386921 C327.2198,101.176203 329.632153,105.477748 332.153497,109.517711 C334.071753,112.584015 341.541326,126.956403 345.167121,127.174387 C350.28247,127.472298 350.50772,116.980018 350.006358,114.015441 Z" id="Shape" fill="#3F3D56"></path>
                            <path d="M411.223433,250.160763 C411.223433,250.160763 361.087193,262.51317 344.375114,250.160763 C344.375114,250.160763 337.108992,278.498638 339.288828,293.030881 C339.288828,293.030881 374.892825,295.210718 378.525886,297.390554 C378.525886,297.390554 379.252498,291.577657 382.885559,294.484105 C382.885559,294.484105 395.237965,279.951862 417.762943,293.030881 C417.762943,293.030881 422.122616,258.880109 411.223433,250.160763 Z" id="Shape" fill="#3764AD"></path>
                            <path d="M384.614896,80.6494096 C384.097902,80.2748182 383.556595,79.9349843 382.99455,79.6321526 C386.045899,83.1010529 387.021677,87.9311945 385.556228,92.312571 C384.09078,96.6939474 380.405362,99.965049 375.881017,100.900091 C368.178928,102.498638 360.673025,97.027248 352.818347,97.1071753 C351.237531,97.045199 349.673394,97.4494994 348.320618,98.2697548 C344.527702,100.86376 345.639419,106.574932 346.366031,111.108992 C346.845595,114.073569 346.64941,124.565849 341.548592,124.28247 L341.461399,124.28247 C342.86376,125.990009 344.171662,127.145322 345.181653,127.188919 C350.267938,127.472298 350.478656,117.016349 349.999092,114.015441 C349.27248,109.481381 348.160763,103.770209 351.953678,101.176203 C353.306454,100.355948 354.870591,99.9516477 356.451408,100.013624 C364.306085,99.9336966 371.811989,105.405086 379.514078,103.80654 C384.520969,102.757315 388.446941,98.8690162 389.544393,93.8724742 C390.641845,88.8759323 388.706699,83.7002846 384.600363,80.6494096 L384.614896,80.6494096 Z" id="Shape" fill="#000000" opacity="0.1"></path>
                        </g>
                    </g>
                </g>
            </g>
        </g>
    </g>
</svg>